<svg width="1440" height="668" viewBox="0 0 1440 668" fill="none" xmlns="http://www.w3.org/2000/svg">
<path d="M338.296 667.026C332.769 664.911 331.223 662.84 332.535 659.31C333.144 657.675 334.312 656.337 335.132 656.337C335.951 656.337 339.539 658.264 343.105 660.62C346.671 662.977 351.031 665.44 352.794 666.094L356 667.284L352.056 667.372C349.887 667.42 346.704 667.669 344.984 667.924C343.263 668.179 340.254 667.774 338.296 667.025V667.026ZM325.751 656.171C324.71 655.576 322.975 655.375 321.895 655.726C320.535 656.167 319.485 655.51 318.479 653.587C317.68 652.061 316.248 650.538 315.296 650.204C313.113 649.436 308.537 641.857 305.99 634.79C304.704 631.221 302.974 628.754 300.921 627.56C297.276 625.441 297.016 624.48 299.836 623.565C303.063 622.518 303.663 616.702 300.947 612.802C299.651 610.941 298.969 608.756 299.359 607.715C299.82 606.487 298.548 604.333 295.468 601.124C291.58 597.074 290.861 595.602 290.687 591.334C290.574 588.572 289.916 585.615 289.225 584.763C288.354 583.69 288.176 579.838 288.646 572.223C289.156 563.97 288.859 558.876 287.454 551.777C285.368 541.234 284.303 521.59 284.845 503.668C284.961 499.844 284.476 494.594 283.768 492.002C282.043 485.689 274.109 477.72 264.303 472.452C257.29 468.684 256.304 467.718 253.562 461.931C251.902 458.426 248.729 453.188 246.511 450.291C244.293 447.394 241.881 443.139 241.152 440.836C238.837 433.527 234.756 426.182 231.974 424.319C230.494 423.327 228.806 420.749 228.222 418.589C227.278 415.094 227.527 414.118 230.482 409.728C233.685 404.968 233.723 404.774 231.558 404.195C226.238 402.772 228.476 395.503 238.025 383.184C244.371 374.997 246.231 368.759 244.473 361.553C243.803 358.807 243.203 355.935 243.139 355.17C243.076 354.405 242.599 353.78 242.079 353.78C241.56 353.78 241.66 352.776 242.301 351.55C243.291 349.661 243.041 349.121 240.664 348.014C237.2 346.401 231.969 347.996 231.949 350.672C231.924 353.882 230.544 354.118 225.992 351.692C223.554 350.393 221.021 349.33 220.364 349.33C219.707 349.33 217.152 347.553 214.686 345.381C212.219 343.209 209.589 340.937 208.841 340.332C208.093 339.727 207.481 338.077 207.481 336.667C207.481 335.256 206.521 333.213 205.346 332.127C204.172 331.04 202.65 328.414 201.965 326.29C201.064 323.499 200.389 322.766 199.53 323.644C197.737 325.477 195.083 325.129 188.642 322.216C185.274 320.694 181.766 318.093 180.365 316.082C179.027 314.161 176.471 311.817 174.685 310.873C171.738 309.314 171.001 309.327 166.707 311.003L161.977 312.85L147.463 305.66C138.536 301.237 131.607 297.018 129.461 294.698C126.134 291.101 126.026 290.71 127.133 286.251C128.148 282.166 127.975 280.902 125.769 276.243C124.381 273.31 121.346 268.805 119.027 266.232C116.707 263.659 115.072 261.118 115.395 260.585C115.717 260.053 114.083 256.462 111.763 252.607C109.129 248.227 107.269 243.535 106.807 240.102C106.215 235.7 105.525 234.354 103.341 233.336C101.026 232.258 100.378 232.395 99.0526 234.247C97.1855 236.855 97.7163 239.607 101.845 248.728C103.522 252.434 105.256 257.929 105.697 260.938C106.139 263.947 107.443 268.297 108.595 270.606C111.323 276.074 109.561 275.978 105.258 270.423C102.72 267.147 102.035 265.351 102.539 263.296C103.078 261.103 102.548 260.047 99.9099 258.052C95.9093 255.029 95.0626 253.078 96.5322 250.271C97.3891 248.634 96.9962 246.839 94.8199 242.448C92.6098 237.989 92.1475 235.829 92.6947 232.518C93.5892 227.106 91.2139 222.207 86.7857 220.332C84.229 219.249 83.3476 218.038 82.8267 214.891C82.4582 212.665 81.7523 209.221 81.2581 207.237C80.7441 205.174 80.7815 203.364 81.3455 203.008C81.8878 202.665 81.533 201.139 80.5571 199.617C79.1198 197.374 79.0214 196.313 80.039 194.03C80.7299 192.479 80.9907 190.707 80.6185 190.092C80.2463 189.476 81.1738 187.636 82.6796 186.004C84.1854 184.371 86.1901 181.115 87.1345 178.768C88.0789 176.421 90.9892 172.069 93.6019 169.099C96.2146 166.128 99.5268 160.924 100.962 157.534C102.955 152.829 104.123 151.367 105.9 151.352C107.18 151.342 108.159 151.959 108.076 152.724C107.73 155.911 110.194 154.929 112.963 150.777C114.595 148.33 115.475 146.161 114.919 145.957C114.364 145.753 113.909 144.833 113.909 143.911C113.909 142.99 111.657 139.998 108.904 137.263C104.337 132.726 104.044 132.124 105.563 130.409C106.793 129.02 106.937 128 106.117 126.501C104.675 123.868 106.95 117.97 109.417 117.946C110.436 117.936 110.726 117.582 110.101 117.112C108.698 116.058 108.062 113.664 108.259 110.177C108.574 104.607 107.382 102.277 103.331 100.547C101.146 99.6137 97.8125 97.6445 95.9227 96.1709C94.0329 94.6973 91.6352 93.4916 90.5946 93.4916C89.5539 93.4916 84.8235 92.4791 80.0826 91.2416C72.4605 89.2521 71.1171 89.1735 68.4768 90.5628C63.005 93.4418 57.2079 94.6152 54.8446 93.3221C53.0719 92.3522 51.1373 92.9512 44.3914 96.5586C39.8385 98.9933 34.3998 101.363 32.3053 101.825C30.2108 102.287 26.2024 103.847 23.3978 105.291C15.4425 109.389 4.04652 113.52 0.894315 113.449C-1.14006 113.403 0.235349 112.49 5.64808 110.296C14.847 106.567 24.2994 101.71 25.1737 100.264C26.2506 98.4824 23.913 97.8433 21.1051 99.1512C19.0378 100.114 17.7637 100.024 15.3781 98.7463L12.3099 97.1028L15.6475 95.3384C19.4203 93.3438 20.6072 91.0872 19.7403 87.5563C18.9008 84.1366 23.5297 81.624 33.5015 80.0865C38.8595 79.2604 42.9327 77.8853 45.6751 75.9768C50.5109 72.6114 49.6801 70.0678 44.4662 72.2757C41.9979 73.3209 40.2001 73.3323 36.5447 72.3261C32.1025 71.1032 31.9443 70.9287 33.9312 69.4433C37.2559 66.958 44.1321 65.4631 48.6499 66.2434C51.5087 66.7372 53.8504 66.3915 56.2537 65.1209L59.7265 63.285L57.4405 60.7972C56.1831 59.429 55.1544 58.0153 55.1544 57.6557C55.1544 56.6237 61.7045 54.5597 64.9796 54.5597C66.6144 54.5597 71.0958 53.3498 74.9384 51.8712C78.7811 50.3926 87.6465 48.3739 94.6394 47.3852C105.981 45.7817 108.383 45.7622 116.888 47.2038C122.131 48.0927 129.359 49.1529 132.95 49.5597C136.541 49.9666 142.896 51.258 147.073 52.4296C156.774 55.1505 163.092 55.1173 173.93 52.2884C178.716 51.0393 183.553 50.3162 184.679 50.6816C185.805 51.0469 187.72 50.8024 188.934 50.1382C190.606 49.2229 191.904 49.3336 194.29 50.5954C196.447 51.7354 199.109 52.0608 202.733 51.6274C206.556 51.1701 209.904 51.6436 214.791 53.3332C218.513 54.6195 222.646 55.672 223.976 55.672C226.332 55.672 226.34 55.7129 224.282 57.2611C222.264 58.7793 222.259 58.8852 224.153 59.6358C225.244 60.0679 229.03 60.1122 232.567 59.7342C238.955 59.0517 239.01 59.0709 240.791 62.5923L242.585 66.1374L244.912 63.153C246.25 61.438 249.429 59.4951 252.386 58.5853C256.855 57.2103 258.211 57.2149 262.7 58.6202C265.868 59.6121 269.661 59.9735 272.501 59.5541C276.118 59.0201 277.797 59.3528 280.157 61.0705C283.135 63.2391 283.218 63.2402 285.86 61.1468C287.335 59.9785 290.369 58.502 292.603 57.8657C297.951 56.3424 299.765 53.0964 296.553 50.7966C294.282 49.1702 294.381 49.0462 300.351 46.0527C304.804 43.8202 306.809 43.3133 307.677 44.2005C308.545 45.0877 308.536 46.0637 307.645 47.7662C306.125 50.668 308.016 55.0542 310.386 54.1247C311.237 53.7906 312.65 53.7981 313.525 54.1414C314.9 54.6806 314.878 55.1379 313.364 57.5006C309.18 64.0279 318.559 62.1784 324.908 55.2241C327.49 52.3967 331.49 51.5395 335.238 53.0102C337.659 53.9599 337.432 54.7375 333.423 59.2318C328.645 64.5877 326.2 65.6831 319.024 65.6831C315.556 65.6831 311.461 66.4512 309.553 67.4599C306.912 68.8561 305.624 68.9722 303.541 68.0019C299.658 66.193 298.306 67.6986 301.092 70.7301L303.47 73.3177L298.726 74.6942C296.116 75.4513 291.778 76.1439 289.085 76.2333C285.18 76.3631 284.187 76.7965 284.181 78.3747C284.176 79.7252 282.276 81.1464 278.197 82.8511C264.98 88.3746 253.767 98.3337 257.827 100.945C258.587 101.434 259.795 103.197 260.51 104.862C261.333 106.78 262.921 108.118 264.839 108.511C266.505 108.852 270.806 110.61 274.396 112.417C277.987 114.225 282.394 116.031 284.189 116.431C289.132 117.532 289.175 117.648 286.873 123.619C284.903 128.727 284.864 129.456 286.39 132.473C287.305 134.281 288.652 135.743 289.385 135.721C292.95 135.616 296.293 132.252 298.37 126.68C300.35 121.369 301.252 120.379 306.935 117.276C315.321 112.697 318.808 108.187 317.879 103.122C317.274 99.8235 317.588 99.0494 320.35 97.0389C322.09 95.7719 324.395 92.7394 325.471 90.3001C327.876 84.8477 331.74 82.9576 338.257 84.0468C344.036 85.0127 350.871 88.7639 351.696 91.423C352.035 92.5145 351.754 94.4749 351.071 95.7793C350.037 97.7549 350.232 98.5891 352.241 100.775L354.653 103.4L358.591 101.313C360.756 100.165 364.228 97.9258 366.305 96.337L370.081 93.4483L370.968 95.9001C371.456 97.2486 371.595 99.0466 371.276 99.8956C370.957 100.745 371.205 102.411 371.827 103.598C372.526 104.934 372.581 106.445 371.969 107.561C371.281 108.819 371.741 110.731 373.492 113.883C376.001 118.398 376.001 118.402 373.798 119.979C370.899 122.055 372.759 124.256 375.941 122.516C379.101 120.787 382.718 121.011 384.949 123.076C388.247 126.127 385.504 129.777 376.751 133.987C367.23 138.566 362.987 139.473 350.56 139.585C341.384 139.668 340.169 139.968 331.247 144.34C326.011 146.906 321.727 149.446 321.727 149.984C321.727 152.279 323.377 152.08 329.707 149.018C333.437 147.214 338.244 145.773 340.534 145.773C344.445 145.772 344.587 145.895 343.366 148.228C342.659 149.58 341.133 151.469 339.975 152.427C338.156 153.934 338.049 154.57 339.188 157.126C340.897 160.959 345.358 162.803 350.695 161.883L354.912 161.155L351.669 163.443C349.886 164.7 346.948 166.056 345.141 166.455C343.334 166.854 339.62 168.332 336.888 169.739C334.115 171.167 331.329 171.923 330.581 171.45C328.859 170.362 330.676 168.73 336.271 166.34C341.246 164.215 340.451 161.957 335.089 162.985C333 163.386 326.227 165.994 320.038 168.781C310.378 173.131 308.693 174.28 308.13 176.898C307.439 180.115 305.08 181.637 296.788 184.216C294.143 185.039 290.716 187.027 289.172 188.635C287.628 190.242 284.672 192.649 282.603 193.983C280.534 195.317 278.553 197.654 278.201 199.177C277.62 201.686 277.485 201.745 276.759 199.812C275.397 196.19 273.346 199.731 273.228 205.907C273.107 212.235 269.969 216.551 263.089 219.856C256.034 223.245 245.995 231.253 243.961 235.114C242.165 238.523 242.09 239.851 243.196 248.613C244.229 256.787 244.167 258.838 242.809 261.523C241.794 263.529 240.611 264.487 239.626 264.101C237.292 263.185 234.436 253.363 235.236 249.002C235.792 245.973 235.424 244.825 233.216 242.704C231.436 240.995 229.793 240.345 228.397 240.798C227.231 241.176 223.936 240.459 221.07 239.203C216.679 237.279 215.278 237.118 212.143 238.175C210.017 238.892 207.906 240.593 207.214 242.145C206.185 244.453 205.504 244.75 202.663 244.125C200.825 243.721 197.999 242.699 196.383 241.855C192.403 239.777 190.174 239.921 185.703 242.549C183.618 243.775 179.363 246.121 176.248 247.763C172.667 249.649 170.208 251.796 169.563 253.599C169.002 255.167 166.996 261.28 165.105 267.183L161.667 277.916L163.423 284.844C166.649 297.573 171.138 301.383 180.491 299.333C187.542 297.787 191.776 294.654 193.333 289.833C194.321 286.77 195.387 285.758 198.579 284.852C203.383 283.488 205.389 283.438 207.234 284.635C208.757 285.623 208.221 287.248 201.404 302.337C196.727 312.69 197.064 313.616 205.077 312.435C212.379 311.358 219.052 312.184 219.832 314.261C220.136 315.071 219.642 320.534 218.733 326.402C217.109 336.9 217.121 337.135 219.459 341.003C220.767 343.166 223.218 345.665 224.906 346.558C227.601 347.983 228.447 347.979 231.838 346.531C237.227 344.229 240.154 344.472 243.897 347.534C246.889 349.982 247.313 350.051 249.665 348.475C251.061 347.54 252.965 345.223 253.897 343.325C255.997 339.047 259.537 336.04 262.51 336.007C263.752 335.993 265.919 334.731 267.324 333.201C270.178 330.095 275.204 329.083 272.748 332.109C270.686 334.649 269.508 342.817 270.836 345.355C271.943 347.468 272.032 347.456 274.045 344.914C275.478 343.105 275.767 341.944 274.984 341.143C273.115 339.233 273.678 337.645 277.155 335.017C280.766 332.288 283.558 332.568 286.674 335.971C288.958 338.467 301.155 341.84 304.65 340.943C309.973 339.577 324.356 348.517 329.761 356.551C332.334 360.377 340.554 364.226 344.169 363.299C351.605 361.391 361.799 369.007 364.183 378.251C364.893 381.004 365.963 383.569 366.562 383.95C368.149 384.961 365.771 388.956 360.573 394.011C357.252 397.241 356.459 398.631 357.393 399.586C358.328 400.542 359.863 399.704 363.551 396.229C368.915 391.175 370.705 390.662 373.391 393.409C375.026 395.08 374.976 395.42 372.735 397.858C371.401 399.31 369.538 400.53 368.595 400.569C367.601 400.609 368.003 401.097 369.551 401.729C371.676 402.597 372.785 402.352 374.991 400.53C380.735 395.785 382.086 395.557 387.189 398.472C390.507 400.366 391.835 401.809 391.668 403.335C391.203 407.576 392.181 408.516 395.058 406.589C397.344 405.057 398.913 404.985 406.562 406.055C414.699 407.194 415.765 407.648 419.668 411.639C422.567 414.602 425.827 416.551 429.922 417.768C435.42 419.402 436.018 419.9 437.015 423.686C438.461 429.176 436.767 435.267 432.185 441.054C430.228 443.526 427.829 447.154 426.854 449.117C425.879 451.081 423.806 453.991 422.247 455.585C419.608 458.283 419.461 458.957 420.119 465.363C421.404 477.878 415.416 501.226 409.641 506.219C407.761 507.845 406.152 508.226 403.17 507.754C400.719 507.366 398.905 507.617 398.426 508.409C397.999 509.114 395.623 510.603 393.146 511.716C390.669 512.83 386.98 515.192 384.95 516.965C381.435 520.034 381.318 520.374 382.5 524.037C383.864 528.261 382.946 533.263 380.023 537.528C379.078 538.907 378.305 541.254 378.305 542.742C378.305 544.231 377.17 546.998 375.783 548.891C374.395 550.784 371.719 555.117 369.835 558.521C365.2 566.894 362.414 568.345 355.694 565.882C349.862 563.745 346.752 563.49 346.752 565.148C346.752 565.773 347.914 566.826 349.335 567.488C350.756 568.15 352.97 570.844 354.256 573.475C356.17 577.393 356.372 578.754 355.375 580.992C353.829 584.46 347.92 587.371 342.427 587.371C337.562 587.371 336.355 588.588 338.035 591.798C339.073 593.779 338.375 596.967 336.369 599.411C336.207 599.609 334.503 598.941 332.583 597.926C328.001 595.503 326.378 597.047 328.694 601.625C329.636 603.488 331.428 605.342 332.675 605.747C334.818 606.443 334.841 606.597 333.099 608.565C332.084 609.712 331.557 611.452 331.927 612.438C332.324 613.497 331.438 615.783 329.756 618.038C327.021 621.703 326.983 621.957 328.735 624.692C329.738 626.256 331.301 627.827 332.21 628.183C335.487 629.469 336.03 633.861 333.531 638.868C331.028 643.884 330.644 648.913 332.582 651.3C334.343 653.469 328.416 657.696 325.751 656.171H325.751ZM245.563 174.405C248.47 168.195 253.88 163.569 258.237 163.569C261.372 163.569 261.409 164.089 258.538 167.821L256.281 170.755L258.597 172.673C260.463 174.218 261.426 174.351 263.554 173.36C265.006 172.684 266.495 171.163 266.862 169.98C267.361 168.371 268.174 167.995 270.089 168.487C271.863 168.942 272.973 168.553 273.703 167.219C275.913 163.181 270.287 158.016 266.146 160.282C263.182 161.903 259.31 158.677 260.137 155.275C260.443 154.014 259.813 151.82 258.722 150.348C256.473 147.313 253.051 146.993 245.563 149.119C242.87 149.883 239.799 150.474 238.739 150.432C237.679 150.39 237.096 150.826 237.443 151.401C237.791 151.975 237.679 152.457 237.195 152.471C236.711 152.484 235.096 153.452 233.607 154.622L230.9 156.749L233.94 157.93C236.317 158.854 237.718 158.722 240.359 157.327C243.462 155.686 244.036 155.687 247.422 157.338C249.462 158.333 252.247 158.843 253.657 158.481C255.059 158.122 256.507 158.324 256.874 158.931C257.249 159.552 255.716 160.35 253.373 160.755C247.005 161.855 243.697 164.566 239.079 172.468C235.221 179.069 234.999 179.865 236.537 181.609C238.046 183.321 238.462 183.348 240.532 181.869C241.803 180.96 244.067 177.601 245.563 174.405V174.405ZM265.331 181.271C269.204 179.251 269.577 178.744 268.212 177.348C266.847 175.953 265.984 176.044 261.544 178.052C256.33 180.41 254.675 183.591 258.663 183.591C259.884 183.591 262.884 182.547 265.331 181.271ZM284.623 172.866C286.89 171.243 286.974 170.925 285.375 170.01C283.022 168.664 276.029 170.984 276.029 173.11C276.029 175.301 281.437 175.148 284.623 172.866ZM366.337 653.222C366.337 652.733 366.924 651.732 367.642 650.997C368.36 650.263 368.537 649.663 368.034 649.663C367.532 649.663 366.534 650.483 365.816 651.487C364.786 652.927 364.074 653.051 362.432 652.077C361.258 651.38 360.973 650.828 361.777 650.809C362.56 650.79 362.898 650.274 362.529 649.663C361.818 648.488 363.685 648.167 369.057 648.543C373.851 648.877 374.333 649.593 371.37 651.976C368.609 654.196 366.337 654.759 366.337 653.222ZM1275 625.305C1271.89 623.289 1278.37 618.837 1294.44 611.953C1298.93 610.031 1305.77 606.01 1309.64 603.019C1316.22 597.932 1316.77 597.712 1318.07 599.616C1320.05 602.506 1318.89 604.598 1314.05 606.827C1311.74 607.893 1308.83 609.958 1307.59 611.416C1306.35 612.874 1304.36 614.068 1303.16 614.068C1301.96 614.068 1299.14 615.754 1296.89 617.814C1289.21 624.867 1279.47 628.199 1275 625.305ZM1198.85 610.855C1197.72 610.123 1197.66 609.369 1198.58 607.608C1199.24 606.347 1199.78 603.747 1199.78 601.83C1199.78 598.697 1200.03 598.434 1202.23 599.225C1203.58 599.71 1206.39 600.171 1208.49 600.251C1210.58 600.331 1212.67 600.469 1213.14 600.558C1214.94 600.904 1210.12 606.513 1205.79 609.108C1200.63 612.198 1200.84 612.144 1198.85 610.855ZM1324.58 601.128C1324.2 600.741 1325.1 599.454 1326.57 598.269C1328.8 596.483 1329.05 595.729 1328.08 593.875C1326.68 591.191 1328.77 588.312 1333.6 586.266C1337.34 584.681 1338.28 581.464 1337.28 573.701C1336.59 568.36 1336.67 568.027 1338.36 569.45C1339.68 570.568 1340 571.975 1339.53 574.544C1339.02 577.358 1339.48 578.821 1341.78 581.61C1344.26 584.624 1344.99 584.951 1346.92 583.896C1348.85 582.843 1349.07 582.939 1348.47 584.552C1348.08 585.591 1347.76 586.638 1347.76 586.878C1347.76 587.118 1346.17 588.147 1344.22 589.165C1342.28 590.183 1338.48 592.876 1335.79 595.149C1331.41 598.845 1326.9 601.832 1325.71 601.832C1325.47 601.832 1324.96 601.515 1324.58 601.128ZM1209.53 586.762C1207.24 584.268 1206.81 584.172 1204.61 585.647C1201.81 587.526 1196.53 586.428 1192.31 583.084C1190.06 581.301 1189.9 580.726 1191.06 578.506C1192.05 576.611 1192.09 575.283 1191.19 573.274C1190.53 571.793 1189.99 569.604 1189.99 568.409C1189.99 565.714 1188.28 565.586 1186.86 568.174C1186.28 569.24 1185.49 569.793 1185.11 569.404C1184.73 569.014 1185.99 566.865 1187.91 564.628C1192.64 559.123 1190.79 557.629 1184.55 561.905C1181.86 563.747 1179.48 565.76 1179.27 566.378C1179.05 566.995 1177.76 565.089 1176.39 562.141C1174.91 558.945 1172.35 555.733 1170.05 554.183C1166.59 551.855 1165.42 551.663 1158.78 552.339C1149.04 553.33 1139.64 555.785 1133.49 558.946C1130.69 560.383 1125.24 561.854 1121.03 562.305C1116.91 562.747 1110.37 564.331 1106.48 565.826C1100.54 568.113 1098.85 568.353 1095.84 567.337C1091.8 565.974 1090.12 563.166 1092.73 562.141C1093.68 561.77 1095.4 559.217 1096.55 556.469C1098.39 552.069 1098.5 550.699 1097.4 545.014C1096.5 540.31 1096.47 535.857 1097.31 528.616C1097.94 523.148 1098.18 517.598 1097.85 516.283C1097.51 514.967 1098.04 511.746 1099.02 509.125C1100.74 504.503 1101.16 504.201 1112.83 499.147C1119.45 496.28 1126.23 493.935 1127.89 493.935C1132.39 493.935 1137.96 489.56 1141.03 483.616C1142.93 479.942 1144.24 478.544 1145.38 478.994C1148.56 480.25 1149.19 480.003 1148.94 477.595C1148.78 476.045 1149.44 474.919 1150.73 474.498C1151.85 474.135 1153.92 472.109 1155.33 469.997C1156.77 467.835 1159.74 465.399 1162.12 464.422C1166.09 462.791 1166.49 462.816 1168.65 464.823C1172.64 468.528 1175.46 469.609 1176.81 467.947C1177.47 467.139 1177.69 466.16 1177.31 465.771C1176.07 464.497 1181.77 457.187 1184.55 456.485C1186.05 456.108 1189.12 454.853 1191.38 453.697C1194.9 451.893 1196.14 451.774 1200.08 452.856C1208.59 455.191 1208.87 455.573 1205.71 460.461C1201.64 466.747 1202.72 469.205 1212.7 476.387C1217.3 479.703 1221.65 482.218 1222.36 481.976C1223.07 481.735 1225.31 479.196 1227.34 476.335C1230.11 472.435 1231.18 469.599 1231.63 465.014C1232.26 458.5 1235.3 449.441 1236.86 449.441C1237.38 449.441 1238.57 452.12 1239.5 455.394C1240.43 458.668 1242.38 462.49 1243.83 463.886C1247.23 467.148 1249.2 476.271 1247.68 481.661C1246.67 485.233 1246.86 485.806 1250.33 489.447C1252.38 491.61 1255.63 496.883 1257.55 501.165C1259.47 505.448 1262.93 511.507 1265.24 514.63L1269.44 520.309L1268.25 529.083C1267.38 535.448 1266.04 539.691 1263.36 544.539C1259.26 551.964 1253.13 559.049 1249.9 560.098C1248.74 560.475 1246.04 563.262 1243.92 566.291C1241.79 569.32 1239.57 571.799 1238.98 571.799C1238.39 571.799 1235.91 574.398 1233.45 577.575C1229.35 582.874 1228.6 583.359 1224.33 583.442C1221.05 583.505 1218.54 584.413 1215.85 586.51L1212.03 589.49L1209.53 586.762H1209.53ZM678.972 563.374C676.668 561.019 676.283 559.814 676.798 556.57C677.283 553.516 676.821 551.721 674.751 548.607C673.281 546.395 672.079 544.042 672.079 543.377C672.079 542.711 670.155 539.531 667.803 536.309C664.169 531.328 663.422 529.339 662.822 523.038C661.765 511.92 658.292 499.886 653.625 491.164C651.331 486.876 649.126 481.308 648.727 478.792C647.877 473.437 650.004 465.466 654.86 455.809L658.091 449.385L656.276 443.798C655.26 440.672 654.764 436.974 655.15 435.403C655.601 433.565 655.116 431.375 653.745 429.061C652.593 427.117 650.883 422.773 649.944 419.408C648.69 414.913 646.943 411.991 643.358 408.395C636.462 401.479 635.565 398.756 637.705 391.23C642.062 375.908 637.355 366.972 625.857 368.735C621.381 369.421 621.209 369.336 620.577 366.102C620.091 363.622 618.776 362.162 615.474 360.44C611.182 358.202 609.345 358.193 604.076 360.387C602.879 360.886 597.983 362.613 593.195 364.225C585.997 366.65 583.835 366.963 580.702 366.034C577.733 365.153 575.233 365.381 569.158 367.085C562.881 368.845 560.606 369.034 557.215 368.077C550.138 366.079 537.979 354.876 536.25 348.759C534.911 344.025 526.588 332.993 523.755 332.198C521.955 331.693 521.734 331.302 522.836 330.575C523.945 329.843 523.752 329.473 522.02 329.01C519.27 328.275 518.997 325.978 521.656 325.954C523.283 325.94 523.323 325.78 521.928 324.859C520.9 324.18 520.786 323.774 521.619 323.764C522.483 323.752 522.154 322.381 520.671 319.811C518.584 316.195 518.541 315.718 520.135 313.916C525.003 308.417 526.07 296.578 522.37 289.118C520.603 285.557 521.739 280.638 525.509 275.523C526.928 273.598 529.699 268.913 531.667 265.112C535.109 258.463 542.781 249.22 544.858 249.22C547.155 249.22 554.569 241.071 554.569 238.545C554.569 232.843 557.904 227.158 563.341 223.592C566.262 221.675 569.685 218.398 570.948 216.31C573.531 212.038 573.896 211.898 576.904 214.041C578.085 214.882 581.018 215.908 583.422 216.32C587.09 216.949 588.843 216.497 594.303 213.511C603.698 208.375 609.503 207.092 620.253 207.777C627.343 208.23 630.534 207.941 633.971 206.535C639.032 204.465 643.407 205.69 642.223 208.845C641.867 209.794 642.084 211.196 642.706 211.962C643.488 212.925 643.482 214.306 642.686 216.446C641.686 219.135 641.908 219.935 644.386 222.579C645.953 224.251 648.759 225.931 650.621 226.312C659.365 228.1 661.852 229.257 663.658 232.383C664.98 234.672 666.715 235.847 669.582 236.397C671.811 236.825 675.049 237.922 676.776 238.835C679.71 240.386 680.09 240.329 682.536 237.98C684.181 236.4 684.927 234.728 684.541 233.485C684.203 232.397 684.461 230.486 685.113 229.239C686.797 226.024 691.576 226.339 699.039 230.159C707.17 234.32 722.588 237.289 728.054 235.746C730.683 235.004 733.211 234.994 735.513 235.717C743.031 238.08 746.881 236.231 747.907 229.765C748.248 227.617 748.83 225.86 749.201 225.86C749.904 225.86 750.272 222.631 750.374 215.571C750.407 213.277 750.937 211.4 751.553 211.4C752.285 211.4 752.249 210.594 751.448 209.063C750.11 206.507 747.396 206.566 740.902 209.29C737.822 210.582 736.965 210.528 734.206 208.861C730.628 206.701 726.957 206.377 725.898 208.128C725.111 209.43 719.547 208.517 716.53 206.591C714.362 205.207 712.337 201.087 712.337 198.063C712.337 196.902 711.235 195.16 709.889 194.19C707.805 192.69 707.683 192.265 709.073 191.335C709.97 190.735 711.817 190.511 713.176 190.838C714.909 191.255 716.503 190.557 718.515 188.499C720.409 186.563 722.712 185.495 725.293 185.355C727.443 185.238 730.556 184.23 732.213 183.114C735.808 180.692 743.971 181.365 750.304 184.606C758.845 188.976 766.429 188.719 769.482 183.956C771.07 181.478 771.079 180.957 769.572 178.605C768.654 177.173 764.242 173.872 759.769 171.27L751.636 166.539L753.16 163.527C753.998 161.87 754.409 160.234 754.074 159.891C753.739 159.548 753.867 158.609 754.359 157.803C754.851 156.998 755.349 155.693 755.466 154.903C755.716 153.218 753.961 153.683 745.309 157.595C740.286 159.866 739.539 160.562 740.653 161.935C741.383 162.834 743.022 163.591 744.295 163.618C746.081 163.656 745.658 164.181 742.445 165.914C738.544 168.018 738.109 168.046 735.572 166.347C733.403 164.894 733.119 164.218 734.147 162.952C735.168 161.695 735.015 161.211 733.404 160.592C732.289 160.164 730.852 159.098 730.211 158.224C727.094 153.977 717.206 165.149 714.331 176.166C712.981 181.337 713.026 181.606 715.567 183.565L718.204 185.599L713.366 186.619C710.705 187.18 707.119 187.245 705.397 186.764C702.219 185.877 698.192 187.214 698.192 189.157C698.192 189.728 697.451 189.905 696.546 189.55C695.641 189.195 694.204 189.495 693.352 190.217C692.032 191.338 692.181 192.256 694.369 196.463C696.74 201.02 696.813 201.643 695.335 204.673C693.482 208.469 691.759 208.187 689.142 203.658C687.318 200.501 687.33 200.428 689.744 200.078C692.79 199.636 692.986 197.653 690.032 197.17C683.29 196.068 679.695 192.437 679.695 186.729C679.695 182.275 675.657 177.366 670.759 175.865C668.214 175.086 665.447 173.449 664.611 172.228C663.774 171.007 661.326 169.255 659.17 168.334C657.014 167.413 654.601 165.712 653.807 164.554C652.669 162.892 651.92 162.692 650.253 163.604C649.092 164.24 648.142 165.476 648.142 166.351C648.142 169.239 662.01 182.304 668.789 185.803C675.976 189.512 677.099 190.837 672.105 189.715C667.653 188.716 666.44 189.716 667.963 193.133C669.033 195.533 668.858 196.263 666.706 198.377L664.206 200.833L664.775 197.519C665.678 192.259 658.894 184.704 653.269 184.704C651.207 184.704 643.284 176.847 641.209 172.744C638.991 168.36 636.523 167.513 633.028 169.936C627.761 173.586 623.813 174.821 619.682 174.107C614.195 173.159 610.743 175.116 611.617 178.677C612.074 180.537 611.82 181.367 610.794 181.367C609.978 181.367 607.888 182.617 606.149 184.146C604.41 185.675 602.613 186.926 602.156 186.927C600.81 186.929 597.012 193.957 597.007 196.453C597.003 198.841 592.748 203.546 588.642 205.702C587.335 206.389 584.292 206.951 581.88 206.951C578.562 206.951 577.202 207.51 576.292 209.249C575.1 211.526 575.064 211.521 572.275 208.67C569.659 205.995 568.153 205.326 562.873 204.491C560.1 204.052 559.631 197.633 561.706 188.488C562.593 184.578 563.028 180.197 562.673 178.752C561.642 174.553 564.87 172.076 570.269 172.924C582.736 174.882 590.029 174.99 591.738 173.242C594.087 170.841 595.146 162.922 593.713 158.482C592.778 155.586 591.492 154.402 587.656 152.904C582.013 150.701 581.894 148.57 587.411 148.513C589.512 148.492 592.544 147.595 594.148 146.521C595.752 145.446 597.526 144.858 598.09 145.215C599.628 146.187 605.453 142.755 607.387 139.737C608.322 138.278 610.162 136.804 611.477 136.462C612.792 136.119 616.316 133.507 619.308 130.658C623.55 126.618 625.776 125.352 629.413 124.908C633.92 124.358 638.451 120.569 636.324 119.131C635.002 118.236 633.897 112.85 634.633 110.888C634.982 109.959 636.523 108.357 638.056 107.33L640.845 105.462L640.129 110.039C639.508 114.011 639.666 114.573 641.329 114.289C642.383 114.109 644.354 113.338 645.71 112.577C647.773 111.418 648.279 111.474 648.823 112.924C649.756 115.408 647.164 118.329 645.374 116.811C644.386 115.972 643.758 116.002 643.206 116.916C642.637 117.858 642.191 117.807 641.536 116.724C641.045 115.911 640.394 115.502 640.089 115.814C639.783 116.126 640.653 117.817 642.021 119.571C644.328 122.529 644.768 122.669 648.055 121.498C650.871 120.494 652.223 120.563 654.62 121.83C657.326 123.261 658.24 123.192 663.441 121.172C667.998 119.402 669.794 119.175 671.811 120.114C673.667 120.979 675.041 120.961 676.765 120.05C681.659 117.465 683.015 115.515 682.407 111.937C681.507 106.633 683.156 104.896 687.5 106.572C690.456 107.713 691.32 107.668 692.656 106.302C694.071 104.856 693.949 104.321 691.631 101.799C689.401 99.3714 689.244 98.7681 690.604 97.8302C691.486 97.2218 694.791 97.0039 697.949 97.3458C703.728 97.9716 710.93 95.6637 709.675 93.588C708.576 91.7703 701.943 91.2451 696.323 92.5307C691.339 93.671 690.031 93.5787 686.212 91.8178C680.279 89.0828 679.58 85.883 683.649 80.0852C688.887 72.6224 689.845 70.2442 688.353 68.4063C686.143 65.685 683.973 66.5722 678.926 72.2598C676.259 75.2652 672.625 78.339 670.851 79.0906C669.076 79.8421 666.881 81.9263 665.972 83.7221C664.493 86.6467 664.495 87.2595 665.995 89.5989C666.915 91.0354 668.661 92.5326 669.874 92.9261C673.211 94.0091 672.551 96.0418 667.777 99.3813C666.309 100.408 664.35 103.314 663.425 105.839C662.265 109.002 660.502 111.16 657.752 112.783C653.876 115.071 653.7 115.08 651.558 113.098C650.345 111.976 649.059 109.688 648.699 108.014C648.339 106.339 646.705 103.328 645.068 101.323L642.09 97.6771L638.316 100.03C636.24 101.324 633.562 102.373 632.365 102.362C628.912 102.329 624.915 98.516 624.647 94.9999C624.514 93.2527 624.07 90.9662 623.661 89.9188C622.686 87.4274 627.558 82.7548 632.621 81.3256C637.703 79.8911 648.009 72.5066 649.766 69.0417C650.547 67.5004 653.194 64.3989 655.648 62.1494C658.102 59.9 660.11 57.5638 660.11 56.9578C660.11 56.3519 662.436 55.0088 665.278 53.9733C668.121 52.9377 672.895 51.0588 675.887 49.798C679.56 48.2499 684.154 47.4315 690.032 47.2778C700.301 47.0092 707.018 48.4009 712.559 51.9457C715.34 53.7244 717.535 54.3311 719.634 53.9018C723.391 53.1337 743.416 59.4792 744.251 61.7021C745.089 63.9363 739.346 66.0453 734.404 65.3177C732.141 64.9845 727.461 64.0933 724.003 63.3374C719.348 62.3197 717.399 62.2876 716.493 63.2136C715.587 64.1397 716.04 64.8231 718.237 65.8465C719.869 66.6067 721.912 68.6279 722.777 70.3382C724.98 74.6928 732.035 78.2428 735.675 76.828C739.172 75.4687 739.148 75.0399 735.458 72.9934C732.045 71.1006 733.62 70.6914 737.906 72.3574C741.328 73.6875 745.206 72.0327 744.303 69.6273C743.88 68.5006 745.069 67.6872 748.423 66.8085C755.602 64.928 756.127 64.6592 755.532 63.171C753.28 57.5419 753.248 57.7037 756.525 58.0862C758.274 58.2903 759.551 59.0548 759.406 59.8101C759.262 60.5566 760.173 61.7302 761.43 62.4181C763.319 63.4515 764.809 63.0834 770.002 60.3004C777.617 56.2196 783.546 54.8891 785.757 56.7649C786.99 57.8108 789.034 57.8182 794.95 56.7979C799.134 56.0764 803.033 55.7863 803.614 56.1534C804.195 56.5204 804.991 56.2901 805.383 55.6415C806.241 54.2232 803.87 51.005 802.572 51.8252C801.004 52.8153 795.858 51.0416 796.978 49.8972C798.105 48.7448 828.385 55.9581 830.197 57.8107C831.419 59.0596 835.286 57.3936 835.286 55.6185C835.286 55.0203 833.127 53.4583 830.487 52.1474C822.304 48.0827 821.779 41.573 829.475 39.5982C833.941 38.4522 835.873 39.7742 842.051 48.2061C850.071 59.153 849.867 58.5961 847.246 62.3583C845.306 65.1443 845.189 65.7963 846.535 66.3244C849.086 67.3251 854.546 63.8234 855.314 60.6936C856.214 57.0264 854.533 53.9011 850.519 51.7789C847.363 50.1104 845.079 47.0533 845.079 44.498C845.079 43.627 846.262 43.4098 848.615 43.8491C852.142 44.5077 855.06 43.2 863.047 37.3803C864.874 36.0493 867.962 35.1723 871.075 35.1001C877.391 34.9536 879.435 33.8697 877.618 31.6308C876.905 30.7528 876.549 29.8029 876.826 29.5198C878.215 28.0992 896.128 25.5394 900.253 26.1718C904.223 26.7804 905.451 26.4512 908.717 23.9046C910.819 22.266 912.538 20.4843 912.538 19.9451C912.538 18.5855 903.03 18.7069 902.201 20.0772C901.062 21.9626 899.584 21.3065 900 19.0996C900.351 17.2362 899.43 16.933 891.505 16.3022C869.864 14.5796 868.105 14.1754 870.701 11.5212C872.984 9.18768 878.582 9.23293 883.268 11.6228C885.188 12.6019 888.369 13.4031 890.336 13.4031C892.303 13.4031 894.215 13.9037 894.585 14.5154C894.955 15.1272 896.861 15.6278 898.82 15.6278C904.247 15.6278 914.739 18.0241 914.08 19.1131C913.76 19.6433 914.775 20.0772 916.336 20.0772C917.897 20.0772 920.741 20.9392 922.656 21.9927C925.232 23.4096 928.83 23.9193 936.475 23.9506C944.693 23.9842 947.425 24.4158 949.804 26.0562C951.449 27.191 952.789 28.4372 952.78 28.8257C952.772 29.2142 950.26 30.9444 947.2 32.6705C939.809 36.8393 941.371 38.656 950.311 36.2878C956.102 34.7538 957.432 34.7439 962.227 36.1995C966.16 37.3937 968.616 37.547 971.284 36.7649C973.947 35.984 976.68 36.1517 981.319 37.3804C986.158 38.6624 988.666 38.7928 991.733 37.9219C998.733 35.9345 1007.34 36.4958 1012.34 39.2651C1014.82 40.6416 1019.4 43.1886 1022.52 44.925C1028.04 48.0031 1028.28 48.0371 1032.1 46.2824C1035.31 44.8138 1037.1 44.6909 1041.82 45.6147C1046.52 46.5328 1048.23 46.4209 1050.88 45.0222C1053.46 43.6539 1053.88 42.9813 1052.89 41.7643C1050.98 39.411 1057.76 38.5362 1066.09 40.0612C1069.9 40.7597 1074.74 41.4569 1076.83 41.6105C1078.93 41.7642 1083.02 42.9845 1085.93 44.3222C1090.36 46.3622 1093.71 46.8244 1106.68 47.1886C1118.99 47.5342 1122.9 48.0378 1125.87 49.6555C1128.89 51.2976 1132.32 51.7153 1143.75 51.8292C1154.26 51.934 1158.97 52.4436 1162.09 53.8138C1167.12 56.0255 1169.14 55.2144 1166.4 52.0787C1164.43 49.8231 1164.44 49.82 1172.04 50.5919C1184.77 51.8854 1200.05 54.7346 1205.22 56.7808C1207.92 57.8463 1213.05 59.0844 1216.63 59.5321C1220.21 59.9799 1225.43 61.5351 1228.24 62.9881C1232.49 65.1935 1233.88 65.4371 1236.61 64.4629C1240.35 63.1306 1242.78 64.09 1248.48 69.1593L1252.03 72.3092L1249.36 72.9952C1246.68 73.6835 1239.55 71.8805 1237.1 69.8919C1236.37 69.3071 1235.36 69.0951 1234.85 69.4206C1234.33 69.7461 1231.79 69.2647 1229.19 68.3506C1223.11 66.2098 1220.42 67.014 1223.18 70.1409C1225.07 72.2766 1225.03 72.3214 1221.43 72.0643C1214.68 71.5832 1216.53 73.6201 1226.44 77.5699C1231.83 79.7174 1236.46 81.7029 1236.75 81.9819C1237.77 82.9925 1234.4 84.2453 1231.95 83.7665C1229.26 83.2408 1222.63 86.192 1222.63 87.9153C1222.63 88.4875 1221.58 89.9532 1220.3 91.1724C1218.17 93.2089 1217.72 93.2553 1214.86 91.7433C1212.19 90.3283 1211.33 90.3137 1208.76 91.6386C1207.11 92.4861 1204.3 93.5403 1202.51 93.9813C1200.72 94.4222 1198.64 95.3002 1197.9 95.9323C1195.71 97.7902 1199.57 103.198 1205.01 105.889C1207.97 107.355 1210.11 109.319 1210.75 111.149C1211.31 112.756 1212.49 115.394 1213.39 117.012C1214.84 119.65 1214.82 120.025 1213.26 120.637C1212.12 121.085 1211.79 121.983 1212.28 123.256C1212.7 124.322 1213.17 126.445 1213.33 127.974C1213.49 129.504 1213.97 131.586 1214.4 132.601C1214.95 133.923 1214.49 134.668 1212.78 135.225C1210.87 135.844 1209.58 135.098 1206.44 131.55C1204.28 129.101 1200.66 125.73 1198.41 124.058C1196.16 122.386 1192.13 118.039 1189.45 114.398C1184.73 107.974 1184.63 107.681 1186.2 104.583C1187.09 102.826 1187.83 100.238 1187.85 98.8306C1187.88 97.4237 1188.56 95.0295 1189.39 93.5101C1190.96 90.6079 1190.35 88.2909 1186.99 84.3507C1184.79 81.7637 1180.86 83.703 1181.85 86.891C1182.76 89.8279 1179.97 90.7796 1176.75 88.627C1175.36 87.6937 1172.14 86.5924 1169.61 86.1796C1165.27 85.4709 1164.95 85.6072 1163.82 88.6262C1163.17 90.3846 1162.89 93.1643 1163.21 94.8034C1163.71 97.3573 1163.36 97.8798 1160.79 98.4569C1159.04 98.8496 1156.05 98.385 1153.61 97.3424C1150.93 96.1973 1148.4 95.8511 1146.59 96.3794C1145.03 96.833 1139.75 97.2449 1134.86 97.2946C1127.12 97.3733 1125.62 97.7189 1123.27 99.9792C1121.78 101.406 1120 104.91 1119.3 107.766C1118.61 110.621 1117.33 114.072 1116.47 115.434C1114.98 117.787 1115.12 118.025 1119.38 120.249C1124.01 122.663 1129.06 123.299 1132.88 121.95C1135.83 120.91 1144.84 128.085 1147.65 133.717C1148.8 136.024 1150.7 138.437 1151.88 139.08C1156.32 141.511 1157.22 157.465 1153.51 167.895C1150.93 175.117 1148.05 177.478 1143.82 175.835C1142.21 175.207 1140.72 174.693 1140.52 174.693C1140.32 174.693 1139.11 176.746 1137.83 179.256C1136.15 182.552 1135.83 184.212 1136.65 185.233C1138.24 187.186 1137.07 189.727 1133.9 191.203C1132.43 191.885 1131.24 192.927 1131.24 193.52C1131.24 194.112 1134.64 196.992 1138.8 199.919C1144.09 203.643 1146.92 206.503 1148.22 209.444C1149.24 211.756 1149.87 213.831 1149.63 214.056C1149.39 214.28 1147.16 215.507 1144.69 216.783L1140.19 219.102L1137.48 212.748C1134.45 205.637 1131.85 202.777 1127.27 201.517C1124.97 200.883 1124.16 199.983 1124.16 198.036C1124.16 196.25 1123.03 194.733 1120.64 193.297C1117.14 191.205 1117.07 191.207 1113.36 193.556C1109.64 195.907 1109.59 195.908 1108.45 193.726C1107.82 192.515 1107.3 190.758 1107.3 189.822C1107.3 188.885 1106.38 187.619 1105.27 187.007C1103.6 186.098 1102.55 186.647 1099.5 190.027C1097.44 192.299 1094.81 194.712 1093.65 195.387C1091.85 196.436 1091.75 196.879 1092.99 198.411C1093.8 199.398 1096.56 201.412 1099.14 202.886C1103.25 205.231 1104.03 205.364 1105.42 203.95C1106.73 202.605 1107.8 202.556 1111.77 203.658L1116.55 204.982L1113.89 206.801C1108.95 210.173 1107.39 211.944 1106.69 214.987C1106.11 217.485 1106.46 218.236 1108.65 219.258C1110.11 219.94 1112.34 222.661 1113.6 225.304C1114.85 227.947 1117.36 231.004 1119.17 232.097C1123.15 234.502 1124.31 237.057 1122.01 238.373C1119.86 239.6 1120.89 241.433 1123.72 241.433C1127.11 241.433 1127.13 243.5 1123.85 255.427C1119.88 269.872 1116.3 274.691 1106.93 278.195C1103.25 279.575 1098.76 280.787 1096.96 280.889C1092.79 281.125 1089.55 282.931 1086.73 286.601L1084.49 289.513L1083.44 286.703C1082.08 283.037 1078.95 282.115 1074.47 284.056C1070.35 285.835 1067.64 288.672 1066.55 292.34C1065.57 295.622 1069.03 301.396 1074.77 306.041C1079.48 309.856 1084.77 319.426 1086.01 326.39C1087.09 332.447 1085.17 336.423 1080.04 338.788C1077.71 339.865 1075.52 341.632 1075.18 342.715C1074.38 345.313 1069.55 348.549 1068.66 347.083C1068.29 346.473 1068.28 345.047 1068.63 343.915C1068.98 342.784 1068.96 341.045 1068.59 340.053C1068.05 338.624 1067.46 338.496 1065.74 339.436C1063.95 340.415 1063.26 340.167 1061.82 338.025C1058.27 332.761 1047.97 324.303 1045.12 324.303C1044.12 324.303 1043.73 325.539 1043.9 328.196C1044.04 330.337 1043.61 334.512 1042.95 337.473C1041.88 342.298 1041.99 343.182 1044.01 345.982C1045.25 347.701 1046.58 350.365 1046.96 351.903C1047.34 353.465 1050.49 357.031 1054.09 359.982C1060.08 364.9 1060.72 365.871 1063.24 374.04C1064.73 378.867 1065.95 383.29 1065.95 383.87C1065.95 385.757 1063.68 384.992 1058.94 381.51C1054.03 377.91 1050.9 372.214 1048.29 362.147C1047.16 357.776 1045.91 355.902 1042.38 353.248C1038.06 349.994 1037.93 349.709 1038.27 344.325C1038.47 341.266 1038.96 336.93 1039.36 334.69C1039.93 331.536 1039.46 329.276 1037.29 324.679C1035.75 321.413 1033.93 316.397 1033.25 313.533C1031.72 307.134 1029.55 306.062 1025.73 309.808C1024.15 311.356 1022.55 312.623 1022.18 312.623C1020.45 312.623 1018.07 308.855 1018.64 307.016C1019.67 303.677 1013.3 292.038 1009.57 290.459C1007.53 289.594 1005.66 287.498 1004.41 284.667C1002.24 279.748 999.809 277.866 997.378 279.227C996.495 279.72 992.964 280.713 989.53 281.433C983.234 282.753 980.975 284.702 981.837 288.071C982.155 289.312 981.053 290.51 978.411 291.798C976.27 292.842 973.962 294.942 973.284 296.464C972.606 297.987 971.112 299.537 969.964 299.909C968.817 300.281 967.047 301.984 966.031 303.692C965.014 305.401 961.988 308.523 959.305 310.63C955.634 313.515 954.488 315.129 954.67 317.158C955.737 329.02 954.1 338.944 950.105 344.838C946.208 350.586 945.934 350.747 942.637 349.211C940.822 348.366 939.705 346.715 939.243 344.194C938.864 342.128 936.672 336.307 934.373 331.258C920.461 300.709 918.404 294.881 919.589 289.364C920.39 285.636 918.468 280.012 916.611 280.649C915.867 280.904 915.245 281.821 915.229 282.686C915.136 287.763 909.557 288.542 905.199 284.087L902.311 281.135L904.796 280.195C907.591 279.138 907.334 276.287 904.491 276.81C903.481 276.995 901.168 275.869 899.352 274.307C897.536 272.745 895.631 271.466 895.119 271.466C894.607 271.466 893.875 270.46 893.493 269.23C892.49 265.999 886.718 263.189 883.826 264.522C881.223 265.722 857.605 265.472 853.652 264.202C852.228 263.745 849.594 261.652 847.799 259.552C844.555 255.756 844.505 255.741 839.638 257.082C835.028 258.352 834.358 258.233 828.147 255.027C822.78 252.258 821.172 250.764 819.515 247.008C817.401 242.216 812.707 238.746 809.853 239.866C808.954 240.218 807.904 241.97 807.519 243.759C806.967 246.328 807.53 247.998 810.198 251.706C812.055 254.288 814.079 258.315 814.695 260.654C816.019 265.678 818.632 267.173 820.798 264.144C822.105 262.317 822.458 262.253 823.343 263.685C823.908 264.6 824.213 265.849 824.02 266.461C823.415 268.384 829.694 271.548 832.623 270.796C834.104 270.416 837.267 267.838 839.653 265.068C843.412 260.702 844.725 260.407 844.082 264.073C843.65 266.541 845.549 269.433 848.692 271.094C853.547 273.66 860.311 279.377 860.311 280.914C860.311 281.622 859.04 283.416 857.485 284.899C855.931 286.382 853.694 289.52 852.514 291.873C849.648 297.588 841.339 305.949 838.525 305.949C835.273 305.949 830.436 308.756 828.51 311.761C827.598 313.184 825.199 315.192 823.18 316.223C812.839 321.501 800.388 326.852 796.883 327.524C793.137 328.242 792.833 328.068 790.849 324.067C789.699 321.749 788.395 317.1 787.951 313.736C787.373 309.359 786.252 306.577 784.013 303.964C782.292 301.954 780.884 299.827 780.884 299.238C780.884 298.648 778.92 296.097 776.521 293.569C773.532 290.42 771.6 287.003 770.39 282.722C769.418 279.285 767.44 274.97 765.994 273.135C756.008 260.458 753.051 255.988 751.563 251.32C749.59 245.133 747.922 244.134 747.152 248.678L746.605 251.904L742.924 247.153C737.253 239.832 736.538 243.16 741.862 252.097C744.382 256.327 748.399 263.791 750.788 268.686C753.177 273.58 756.275 279.133 757.672 281.026C759.11 282.976 760.211 286.022 760.211 288.052C760.211 292.243 761.434 294.859 766.239 300.944C768.172 303.391 770.081 306.964 770.482 308.883C770.996 311.345 773.096 313.92 777.611 317.622C784.473 323.248 788.919 329.121 790.023 334.016C790.437 335.854 792.007 337.741 793.999 338.794C797.033 340.398 798.101 340.354 807.69 338.23C813.411 336.963 819.47 335.197 821.156 334.306L824.221 332.686L824.949 337.089C825.61 341.09 824.899 343.017 817.153 358.205C808.824 374.534 808.435 375.074 800.154 381.758C795.493 385.52 790.615 390.126 789.314 391.993C788.014 393.86 783.853 398.903 780.068 403.2C769.021 415.738 767.519 426.766 774.846 441.547C776.707 445.301 777.434 448.143 776.993 449.94C776.626 451.434 776.861 455.208 777.515 458.326C778.545 463.236 778.429 464.549 776.646 468.12C774.073 473.274 772.027 475.126 764.835 478.81C761.693 480.42 759.123 482.212 759.123 482.793C759.123 483.374 756.919 486.386 754.227 489.486C751.534 492.585 749.33 495.625 749.33 496.241C749.33 496.857 750.34 499.383 751.573 501.856C755.272 509.268 752.787 514.639 743.921 518.393C740.183 519.976 738.956 523.208 739.88 529.032C740.365 532.085 740.057 533.1 738.365 534.026C737.198 534.664 735.086 537.043 733.674 539.311C729.213 546.472 716.393 559.143 710.568 562.146C705.708 564.652 704.465 564.873 700.894 563.865C697.745 562.977 695.205 563.117 689.926 564.473C681.376 566.669 682.283 566.759 678.972 563.375L678.972 563.374ZM822.284 208.59C825.093 207.106 825.494 206.288 825.494 202.053C825.494 199.016 824.859 196.673 823.79 195.766C822.853 194.971 821.335 192.835 820.416 191.019C818.896 188.014 818.903 187.778 820.488 188.4C822.58 189.221 825.494 188.233 825.494 186.703C825.494 186.098 824.482 184.15 823.244 182.374C821.381 179.698 820.634 179.341 818.892 180.294C817.484 181.065 816.789 181.072 816.789 180.316C816.789 179.695 814.847 178.174 812.474 176.936C807.221 174.197 805.352 171.161 806.99 168.032C808.23 165.663 812.66 164.003 814.551 165.199C817.102 166.81 817.854 164.435 815.749 161.413C810.646 154.087 803.541 154.569 794.729 162.84C789.042 168.177 788.548 169.596 791.764 171.356C792.961 172.01 793.94 173.291 793.94 174.2C793.94 175.11 795.876 178.001 798.241 180.625C803.689 186.667 804.688 189.428 804.014 196.579L803.471 202.336L810.946 206.257C815.058 208.414 818.568 210.203 818.748 210.233C818.927 210.263 820.518 209.524 822.284 208.59H822.284ZM792.308 519.302C789.236 517.521 788.8 516.58 787.997 510.015C787.356 504.768 787.624 503.628 790.694 498.527C793.814 493.343 794.039 492.344 793.35 486.713C792.357 478.582 794.048 474.309 798.67 473.273C803.026 472.296 812.449 463.791 814.707 458.799L816.432 454.985L817.631 457.675C820.649 464.446 820.342 467.42 815.092 482.27C812.283 490.215 809.27 499.719 808.396 503.39C805.598 515.137 804.008 517.97 799.425 519.374C794.546 520.868 795.018 520.873 792.308 519.302ZM1328.28 499.963C1324.81 496.08 1322.73 492.748 1322.73 491.064C1322.73 487.332 1323.32 487.658 1326.46 493.135C1327.96 495.754 1330.67 499.352 1332.49 501.129C1334.3 502.907 1335.79 504.769 1335.79 505.266C1335.79 507.406 1333.47 505.77 1328.28 499.963ZM842.903 498.384C842.903 497.772 843.392 497.272 843.991 497.272C844.589 497.272 845.079 497.772 845.079 498.384C845.079 498.996 844.589 499.496 843.991 499.496C843.392 499.496 842.903 498.996 842.903 498.384ZM1415.88 496.355C1415.5 495.72 1415.71 494.866 1416.36 494.456C1417.98 493.435 1418.55 494.247 1417.47 496.032C1416.89 496.989 1416.33 497.102 1415.88 496.355ZM850.519 494.557C850.519 494.287 851.009 493.757 851.607 493.379C852.206 493 852.695 493.221 852.695 493.869C852.695 494.517 852.206 495.047 851.607 495.047C851.009 495.047 850.519 494.826 850.519 494.557ZM1387.58 483.267C1386.52 480.444 1387.87 479.454 1390.87 480.851C1393.46 482.057 1393.51 482.241 1391.71 483.59C1389.19 485.476 1388.39 485.414 1387.58 483.267ZM1394.48 478.32C1392.35 476.977 1393.82 475.904 1397.21 476.332C1399.86 476.667 1399.92 476.789 1398.03 477.982C1396.82 478.744 1395.37 478.882 1394.48 478.32ZM1343.68 474.238C1341.44 469.32 1342.23 467.43 1344.54 472.165C1346.94 477.092 1346.98 477.253 1345.85 477.241C1345.41 477.236 1344.43 475.885 1343.68 474.238ZM1347.84 473.449C1347.8 472.277 1348.05 471.62 1348.42 471.989C1348.78 472.359 1348.82 473.318 1348.5 474.121C1348.15 475.008 1347.9 474.745 1347.84 473.449H1347.84ZM1436.42 462.769C1435.43 461.122 1436.37 460.281 1438.69 460.744C1440.39 461.083 1440.41 461.264 1438.88 462.565C1437.65 463.602 1436.96 463.66 1436.42 462.769ZM793.396 457.227C793.027 456.616 793.242 456.115 793.876 456.115C794.51 456.115 795.029 456.616 795.029 457.227C795.029 457.839 794.813 458.34 794.549 458.34C794.285 458.34 793.766 457.839 793.396 457.227ZM1271.05 446.777C1264.16 444.557 1261.04 442.495 1258.33 438.378C1255.24 433.674 1249.57 430.113 1246.68 431.052C1245.51 431.432 1243.54 433.495 1242.3 435.638C1240.2 439.285 1239.79 439.486 1235.97 438.791C1233.72 438.382 1230.58 436.809 1228.99 435.294C1226.97 433.368 1225.42 432.76 1223.84 433.272C1222.6 433.674 1220.81 433.556 1219.85 433.009C1218.35 432.153 1218.5 431.752 1220.89 430.15C1223.66 428.293 1223.67 428.269 1221.81 424.283C1220.31 421.082 1218.25 419.414 1211.52 415.951C1206.89 413.57 1201.65 411.621 1199.88 411.621C1195.83 411.621 1194.16 407.809 1197.21 405.53C1199.02 404.175 1198.76 403.838 1194.03 401.489C1189.01 398.994 1188.94 398.889 1191.33 397.527C1192.69 396.757 1194.87 396.11 1196.19 396.088C1198.73 396.046 1201.96 399.806 1201.96 402.82C1201.96 403.825 1203.02 406.022 1204.31 407.703C1206.63 410.715 1206.69 410.727 1208.39 408.553C1209.34 407.339 1212.38 405.024 1215.14 403.408L1220.15 400.469L1227.1 403.676C1230.93 405.439 1236.36 407.73 1239.17 408.765C1241.98 409.801 1247.6 412.879 1251.66 415.605C1259.41 420.812 1262.78 425.202 1260.85 427.582C1259.28 429.522 1265.46 438.359 1271.87 443.317C1278.91 448.767 1278.79 449.271 1271.05 446.777ZM1318.4 446.687C1317.54 445.63 1317.46 444.992 1318.18 444.992C1319.5 444.992 1321.03 447.102 1320.28 447.874C1320 448.153 1319.16 447.62 1318.4 446.687V446.687ZM1135.59 442.159C1134.01 441.268 1133.55 440.612 1134.5 440.599C1136.44 440.572 1139.55 442.423 1138.82 443.172C1138.54 443.461 1137.08 443.005 1135.59 442.159ZM1153.98 440.689C1157.07 436.259 1161.9 434.363 1166.36 435.829C1169.61 436.897 1169.67 436.986 1167.08 437.092C1165.55 437.154 1161.99 438.707 1159.16 440.542C1152.7 444.73 1151.14 444.775 1153.98 440.689ZM1311.85 442.211C1310.38 440.4 1310.73 440.173 1313.4 441.218C1314.34 441.589 1315.12 442.34 1315.12 442.886C1315.12 444.425 1313.35 444.06 1311.85 442.211ZM1316.95 441.229C1316.54 440.14 1316.24 438.413 1316.27 437.392C1316.32 436.163 1316.7 436.444 1317.39 438.222C1317.97 439.699 1318.27 441.426 1318.07 442.059C1317.86 442.693 1317.36 442.319 1316.95 441.229ZM1401.07 442.277C1401.07 442.007 1401.56 441.477 1402.16 441.099C1402.76 440.72 1403.25 440.941 1403.25 441.589C1403.25 442.237 1402.76 442.767 1402.16 442.767C1401.56 442.767 1401.07 442.546 1401.07 442.277ZM1122.8 437.605C1122.04 437.281 1121.71 436.557 1122.05 435.998C1122.88 434.623 1129.85 434.7 1130.69 436.093C1131.06 436.705 1130.72 437.212 1129.94 437.221C1129.16 437.229 1127.54 437.451 1126.34 437.715C1125.14 437.978 1123.55 437.929 1122.8 437.605V437.605ZM1138.95 436.77C1136.97 434.334 1139.25 433.593 1144.38 435.004C1149.54 436.426 1149.52 436.648 1144.17 437.635C1141.39 438.148 1139.86 437.895 1138.95 436.77ZM1302.31 436.093C1301.56 434.861 1301.43 433.868 1302.01 433.868C1302.59 433.868 1303.6 434.869 1304.24 436.093C1304.88 437.317 1305.01 438.318 1304.54 438.318C1304.06 438.318 1303.06 437.317 1302.31 436.093ZM1309.13 434.974C1306.22 431.688 1307.77 431.171 1310.77 434.429C1312.17 435.956 1312.82 437.205 1312.21 437.205C1311.6 437.205 1310.21 436.201 1309.13 434.974ZM1105.12 434.781C1101.23 434.23 1095.75 433.006 1092.94 432.063C1090.12 431.119 1086.81 430.676 1085.57 431.077C1083.08 431.886 1072.48 428.701 1072.48 427.144C1072.48 423.588 1082.24 423.318 1087.42 426.73C1089.35 428.004 1090.88 428.089 1094.97 427.152C1099.5 426.114 1100.45 426.241 1103.11 428.254C1104.77 429.507 1106.62 430.531 1107.22 430.531C1109.37 430.531 1115.9 434.252 1115.35 435.164C1115.04 435.675 1114.2 436.023 1113.49 435.938C1112.78 435.853 1109.01 435.332 1105.12 434.781ZM1300.43 429.419C1299.34 428.195 1298.95 427.194 1299.55 427.194C1300.14 427.194 1301.52 428.195 1302.6 429.419C1303.69 430.643 1304.08 431.644 1303.49 431.644C1302.89 431.644 1301.51 430.643 1300.43 429.419ZM1293.57 428.01C1292.95 427.249 1292.13 425.127 1291.74 423.295C1291.12 420.344 1291.19 420.218 1292.35 422.189C1293.07 423.412 1294.36 425.24 1295.21 426.25C1296.11 427.32 1296.33 428.359 1295.73 428.74C1295.16 429.1 1294.18 428.771 1293.57 428.01ZM1270.52 424.473L1267.82 422.944L1272.01 422.14C1274.32 421.698 1277.86 419.849 1279.88 418.032C1282.09 416.048 1283.56 415.33 1283.55 416.234C1283.52 418.496 1282.18 420.239 1278.12 423.306C1273.87 426.51 1274.07 426.479 1270.52 424.473ZM1066.42 420.142C1062.42 417.814 1055.21 408.807 1052.87 403.208C1051.6 400.188 1048.7 395.214 1046.42 392.155C1044.14 389.097 1041.52 385.092 1040.6 383.257C1039.68 381.421 1036.89 377.917 1034.4 375.47C1029.14 370.311 1025.91 364.889 1028.12 364.928C1030.97 364.978 1038.32 369.155 1041.47 372.52C1050.17 381.8 1051.95 383.452 1056.05 386.038C1060.02 388.533 1061.89 391.13 1062.08 394.38C1062.12 394.992 1063.24 396.744 1064.58 398.273C1065.93 399.803 1068.46 402.679 1070.21 404.666C1071.96 406.652 1073.71 409.751 1074.1 411.553C1075.37 417.449 1070.72 422.646 1066.42 420.142ZM847.255 419.408C847.255 418.796 847.745 418.296 848.343 418.296C848.941 418.296 849.431 418.796 849.431 419.408C849.431 420.02 848.941 420.52 848.343 420.52C847.745 420.52 847.255 420.02 847.255 419.408ZM1135.04 419.398C1134.66 418.781 1134.66 417.302 1135.03 416.112C1135.4 414.92 1134.95 412.775 1134.03 411.338C1132.51 408.974 1132.53 408.479 1134.18 406.064C1135.18 404.598 1136.37 400.662 1136.81 397.318C1137.36 393.191 1138.44 390.396 1140.18 388.621C1142.55 386.193 1143.15 386.085 1148.49 387.12C1153.07 388.009 1154.88 387.899 1157.37 386.58C1161.55 384.371 1161.85 384.47 1160.47 387.583C1158.7 391.541 1155.18 392.805 1151.46 390.815C1144.83 387.261 1136.02 392.543 1140.67 397.291C1142.38 399.037 1143.32 399.195 1146.48 398.268C1151.9 396.679 1154.04 396.971 1150.67 398.84C1146.86 400.957 1146.14 403.305 1148.1 407.187C1149 408.954 1149.73 411.692 1149.73 413.274C1149.73 415.805 1149.47 416.007 1147.55 414.957C1146.35 414.302 1144.62 411.935 1143.71 409.698C1142.06 405.662 1142.03 405.647 1139.92 407.806C1138.07 409.699 1137.94 410.54 1138.96 414.292C1139.87 417.683 1139.81 418.804 1138.67 419.545C1136.75 420.79 1135.85 420.754 1135.03 419.398H1135.04ZM1284.32 413.465C1283.29 411.865 1280.94 409.757 1279.1 408.782C1277.25 407.806 1275.99 406.758 1276.29 406.452C1277.98 404.722 1287.42 412.578 1286.62 415.046C1286.37 415.804 1285.38 415.125 1284.32 413.465ZM1113.46 409.763C1111.81 408.884 1109.6 408.446 1108.54 408.79C1105.83 409.669 1095.08 407.432 1094.02 405.769C1093.17 404.445 1090.68 396.295 1089.34 390.487C1088.98 388.89 1089.34 386.818 1090.2 385.619C1091.45 383.879 1092.09 383.747 1094.06 384.826C1096.14 385.965 1096.58 385.77 1097.73 383.209C1098.44 381.608 1100.82 379.363 1103.01 378.221C1105.32 377.011 1107.55 374.746 1108.34 372.796C1109.25 370.549 1110.92 369.038 1113.41 368.198C1115.45 367.51 1118.39 365.236 1119.95 363.144C1121.51 361.053 1123.37 359.341 1124.08 359.341C1124.79 359.341 1126.94 360.994 1128.85 363.013L1132.33 366.685L1129.54 370.522C1126.37 374.88 1126.54 378.628 1130.13 383.785L1132.3 386.908L1129.59 388.723C1128.1 389.721 1126.89 391.152 1126.89 391.903C1126.9 394.451 1119.93 409.136 1118.18 410.252C1116.96 411.029 1115.55 410.882 1113.46 409.763ZM1176.66 409.742C1174.41 409.141 1174.1 407.172 1176.25 407.172C1177.08 407.172 1179.38 407.505 1181.37 407.913C1184.44 408.54 1184.67 408.783 1182.87 409.503C1180.5 410.448 1179.45 410.488 1176.66 409.742ZM1349.93 395.558C1349.93 395.288 1350.42 394.758 1351.02 394.38C1351.62 394.002 1352.11 394.223 1352.11 394.871C1352.11 395.519 1351.62 396.049 1351.02 396.049C1350.42 396.049 1349.93 395.828 1349.93 395.558ZM1172.85 392.541C1171.98 391.652 1171.93 390.621 1172.68 389.181C1173.28 388.039 1173.48 386.624 1173.13 386.038C1172.14 384.415 1174.6 380.476 1176.6 380.476C1178.2 380.476 1178.19 380.667 1176.53 382.545C1175.09 384.169 1174.93 385.244 1175.78 387.541C1177.51 392.185 1175.63 395.386 1172.85 392.541H1172.85ZM626.381 388.884C626.381 388.614 626.87 388.084 627.469 387.706C628.067 387.328 628.557 387.549 628.557 388.197C628.557 388.845 628.067 389.375 627.469 389.375C626.87 389.375 626.381 389.154 626.381 388.884ZM1380.94 386.038C1380.57 385.426 1380.79 384.925 1381.42 384.925C1382.06 384.925 1382.58 385.426 1382.58 386.038C1382.58 386.649 1382.36 387.15 1382.1 387.15C1381.83 387.15 1381.31 386.649 1380.94 386.038ZM632.909 375.536C632.909 375.266 633.399 374.736 633.997 374.358C634.595 373.98 635.085 374.201 635.085 374.849C635.085 375.496 634.595 376.026 633.997 376.026C633.399 376.026 632.909 375.806 632.909 375.536ZM1156.27 358.812C1154.2 353.862 1153.92 353.64 1150.73 354.357C1147.54 355.072 1147.43 354.985 1148.62 352.706C1149.61 350.819 1150.53 350.444 1152.87 350.97C1155.13 351.477 1156.57 350.964 1158.78 348.87C1160.39 347.346 1161.71 345.2 1161.73 344.1C1161.76 341.292 1165.8 350.708 1166.72 355.742C1167.42 359.564 1167.33 359.772 1165.63 358.332C1163.11 356.194 1160.68 358.412 1162.75 360.963C1163.58 361.981 1163.68 362.678 1163.01 362.678C1162.39 362.678 1161.11 362.981 1160.17 363.35C1158.9 363.845 1157.88 362.656 1156.27 358.812ZM957.889 360.777C956.673 358.757 955.981 349.693 956.86 347.288C957.792 344.737 957.862 344.768 960.634 348.956C963.956 353.976 965.02 357.195 963.923 358.913C962.874 360.559 958.56 361.891 957.889 360.777ZM1200.87 355.023C1200.87 354.412 1201.36 353.602 1201.96 353.224C1202.56 352.845 1203.05 353.037 1203.05 353.648C1203.05 354.26 1202.56 355.07 1201.96 355.448C1201.36 355.826 1200.87 355.635 1200.87 355.023ZM1371.7 354.892C1371.7 354.28 1371.91 353.78 1372.17 353.78C1372.44 353.78 1372.96 354.28 1373.33 354.892C1373.7 355.504 1373.48 356.004 1372.85 356.004C1372.21 356.004 1371.7 355.504 1371.7 354.892ZM1124.71 348.466C1124.71 347.99 1126.89 345.112 1129.56 342.07C1133.46 337.612 1134.41 336.982 1134.45 338.824C1134.48 340.081 1132.84 342.959 1130.82 345.22C1127.38 349.053 1124.71 350.474 1124.71 348.466ZM1148.27 345.498C1147.88 344.441 1147.96 342.838 1148.45 341.934C1149.22 340.534 1149.54 340.52 1150.61 341.843C1151.57 343.028 1151.53 343.871 1150.43 345.406C1149.08 347.292 1148.95 347.298 1148.27 345.498V345.498ZM315.056 341.163C315.722 340.342 315.945 339.341 315.552 338.939C315.158 338.536 315.851 338.207 317.091 338.207C318.811 338.207 319.212 338.735 318.778 340.432C318.447 341.723 317.294 342.656 316.026 342.656C314.324 342.656 314.11 342.328 315.056 341.163ZM1155.57 340.869C1155.17 339.711 1154.64 338.388 1154.4 337.929C1154.15 337.47 1154.42 337.095 1154.98 337.095C1156.07 337.095 1157.6 341.662 1156.79 342.489C1156.53 342.756 1155.98 342.027 1155.57 340.869ZM1144.55 337.967C1143.02 336.084 1144.51 333.405 1146.8 333.926C1148.23 334.253 1148.28 334.716 1147.13 336.892C1146.02 338.991 1145.54 339.191 1144.55 337.967ZM1157.41 334.144C1156.16 332.521 1155.32 331.008 1155.55 330.781C1156.43 329.877 1159.49 331.869 1161.12 334.407C1163.62 338.311 1160.45 338.086 1157.41 334.144ZM1139.53 329.838C1138.56 328.847 1137.76 327.461 1137.76 326.757C1137.76 326.053 1138.84 326.575 1140.15 327.918C1141.47 329.26 1142.26 330.647 1141.91 330.999C1141.57 331.351 1140.49 330.828 1139.53 329.838ZM285.458 329.679C285.059 329.271 284.733 328.42 284.733 327.788C284.733 327.091 285.24 327.157 286.02 327.955C286.729 328.679 287.055 329.53 286.746 329.846C286.437 330.162 285.857 330.087 285.458 329.679ZM279.293 328.196C279.293 327.584 279.509 327.083 279.772 327.083C280.036 327.083 280.555 327.584 280.925 328.196C281.295 328.808 281.079 329.308 280.445 329.308C279.811 329.308 279.293 328.808 279.293 328.196ZM330.431 325.971C330.431 325.359 330.647 324.859 330.911 324.859C331.175 324.859 331.693 325.359 332.063 325.971C332.433 326.583 332.217 327.083 331.583 327.083C330.95 327.083 330.431 326.583 330.431 325.971ZM1150.47 325.802C1149.38 325.173 1147.31 324.96 1145.87 325.328C1143.77 325.869 1142.32 325.002 1138.37 320.854C1132.8 314.994 1131.72 312.523 1133.35 309.401C1133.98 308.195 1134.5 305.703 1134.5 303.863C1134.5 297.825 1138.46 298.069 1141.36 304.286C1142.96 307.73 1142.97 308.47 1141.46 312.164C1139.84 316.141 1139.87 316.318 1142.77 319.412C1144.86 321.647 1146.43 322.406 1148.09 321.981C1149.49 321.622 1151 322.067 1151.82 323.081C1153.78 325.495 1152.92 327.217 1150.47 325.802H1150.47ZM323.903 318.807C323.903 318.537 324.392 318.007 324.991 317.629C325.589 317.25 326.079 317.471 326.079 318.119C326.079 318.767 325.589 319.297 324.991 319.297C324.392 319.297 323.903 319.076 323.903 318.807ZM494.727 314.848C494.727 314.236 495.216 313.735 495.815 313.735C496.413 313.735 496.903 314.236 496.903 314.848C496.903 315.459 496.413 315.96 495.815 315.96C495.216 315.96 494.727 315.459 494.727 314.848ZM320.639 310.53C320.639 309.918 321.128 309.108 321.727 308.73C322.325 308.352 322.815 308.543 322.815 309.155C322.815 309.767 322.325 310.576 321.727 310.955C321.128 311.333 320.639 311.141 320.639 310.53ZM311.398 305.962C311.017 305.331 311.453 305.145 312.422 305.525C314.307 306.264 314.652 307.061 313.086 307.061C312.523 307.061 311.763 306.566 311.398 305.962ZM484.39 305.949C484.02 305.337 484.236 304.837 484.87 304.837C485.504 304.837 486.022 305.337 486.022 305.949C486.022 306.561 485.806 307.061 485.542 307.061C485.279 307.061 484.76 306.561 484.39 305.949ZM315.742 303.724C315.372 303.112 315.588 302.612 316.222 302.612C316.856 302.612 317.374 303.112 317.374 303.724C317.374 304.336 317.159 304.837 316.895 304.837C316.631 304.837 316.112 304.336 315.742 303.724ZM320.639 303.724C320.639 303.112 320.854 302.612 321.118 302.612C321.382 302.612 321.901 303.112 322.271 303.724C322.641 304.336 322.425 304.837 321.791 304.837C321.157 304.837 320.639 304.336 320.639 303.724ZM245.835 300.763C245.087 300.454 244.475 299.743 244.475 299.182C244.475 297.578 249.278 297.991 251.611 299.796C253.618 301.347 253.56 301.426 250.459 301.376C248.664 301.348 246.583 301.071 245.835 300.763ZM273.367 300.132C272.392 299.574 270.236 299.422 268.577 299.794C266.918 300.167 264.366 299.983 262.906 299.386C260.559 298.426 260.767 298.313 264.702 298.407C270.487 298.545 272.031 297.582 270.553 294.758C269.504 292.754 269.819 292.601 275.01 292.601C280.031 292.601 287.275 294.955 288.502 296.986C289.319 298.336 275.316 301.247 273.367 300.132ZM294.238 300.835C292.949 299.517 294.551 298.163 297.4 298.163C299.111 298.163 299.978 298.687 299.699 299.553C299.197 301.11 295.383 302.006 294.238 300.835ZM1081.42 299.066C1078.54 296.121 1081.39 292.601 1086.65 292.601C1088.99 292.601 1088.99 292.62 1086.99 296.127C1084.65 300.214 1083.26 300.95 1081.42 299.066ZM303.23 298.838C303.23 298.597 303.964 298.112 304.862 297.76C305.759 297.408 306.494 297.605 306.494 298.197C306.494 298.79 305.759 299.275 304.862 299.275C303.964 299.275 303.23 299.078 303.23 298.838ZM256.196 290.864C255.86 290.521 253.563 290.211 251.092 290.177C247.682 290.128 246.864 289.786 247.7 288.755C248.509 287.76 247.348 286.434 243.348 283.784C235.505 278.589 231.126 277.573 225.857 279.729C220.916 281.75 220.538 281.807 220.538 280.534C220.538 278.206 229.197 275.645 235.433 276.13C241.396 276.593 244.735 277.891 256.444 284.295C266.068 289.558 266.078 289.568 262.972 290.474C259.444 291.502 256.96 291.645 256.196 290.864ZM264.06 281.477C266.169 280.084 267.324 280.084 267.324 281.477C267.324 282.089 266.222 282.582 264.876 282.573C262.896 282.559 262.74 282.349 264.06 281.477ZM1130.58 279.505C1129.92 279.06 1128.79 277.545 1128.07 276.137C1126.97 274.015 1127.09 272.985 1128.73 270.109C1131.27 265.666 1132.98 265.112 1133.81 268.467C1134.67 271.997 1132.17 280.574 1130.58 279.505ZM271.204 278.022C271.93 276.821 276.029 276.685 276.028 277.862C276.027 278.321 274.807 278.769 273.315 278.857C271.823 278.945 270.873 278.569 271.204 278.022ZM249.688 267.302C247.948 265.26 248.201 262.568 250.133 262.568C250.751 262.568 251.007 263.545 250.702 264.739C250.396 265.933 250.706 267.116 251.391 267.368C252.075 267.619 252.347 268.147 251.994 268.54C251.641 268.933 250.604 268.376 249.688 267.302ZM256.008 258.563C255.621 257.532 255.549 256.437 255.848 256.131C256.148 255.825 256.709 256.419 257.096 257.451C257.484 258.482 257.556 259.577 257.256 259.883C256.957 260.189 256.396 259.595 256.008 258.563ZM249.19 257.562C249.19 256.644 250.123 255.894 251.262 255.894C253.105 255.894 253.154 256.079 251.703 257.562C250.805 258.48 249.873 259.231 249.63 259.231C249.388 259.231 249.19 258.48 249.19 257.562ZM1161.7 233.176C1161.7 232.305 1160.51 230.149 1159.06 228.384C1155.61 224.194 1156.83 221.398 1160.92 224.133C1163.85 226.099 1165.39 230.117 1164.3 233.002C1163.48 235.19 1161.7 235.309 1161.7 233.176ZM317.374 226.482C317.374 226.212 317.864 225.682 318.462 225.304C319.061 224.926 319.551 225.147 319.551 225.795C319.551 226.443 319.061 226.973 318.462 226.973C317.864 226.973 317.374 226.752 317.374 226.482ZM1167.77 225.115C1167.06 223.236 1168.73 221.459 1171.22 221.428C1172.95 221.406 1172.98 223.893 1171.28 225.638C1169.5 227.452 1168.59 227.316 1167.77 225.115ZM1177.71 221.055C1175.59 217.759 1172.61 217.306 1165.78 219.246C1163 220.034 1161.09 220.043 1159.79 219.273C1158.75 218.651 1158.47 218.126 1159.17 218.108C1159.87 218.089 1161.92 216.805 1163.72 215.254C1166.05 213.253 1167.75 212.627 1169.59 213.099C1171.54 213.598 1173.64 212.642 1178.06 209.246C1186.67 202.634 1187.45 200.549 1183.95 193.483C1180.59 186.702 1181.52 184.519 1186.5 187.527C1190.13 189.716 1193.54 195.987 1192.55 198.63C1192.19 199.582 1192.73 202.568 1193.74 205.266C1195.16 209.085 1195.3 210.69 1194.35 212.508C1192.95 215.178 1189.06 216.962 1184.64 216.962C1182.16 216.962 1181.42 217.612 1180.61 220.498L1179.62 224.035L1177.71 221.055V221.055ZM736.926 217.258C735.628 215.93 736.319 214.737 738.386 214.737C739.547 214.737 740.8 214.236 741.17 213.625C742.181 211.952 743.906 212.287 743.252 214.03C742.581 215.818 737.87 218.222 736.926 217.258ZM699.824 215.333L696.56 213.805L700.912 213.73C706.333 213.637 710.326 214.676 709.54 215.976C708.665 217.424 703.57 217.087 699.824 215.333ZM655.871 204.237C651.516 201.958 651.311 201.674 653.584 201.066C656.307 200.338 662.333 201.244 662.21 202.362C662.168 202.744 661.801 203.886 661.394 204.899C660.725 206.564 660.196 206.501 655.871 204.237ZM634.062 192.203C633.12 189.441 633.195 188.384 634.418 187.133C636.63 184.872 638.349 186.461 638.349 190.768C638.349 195.855 635.619 196.769 634.062 192.203ZM608.548 193.127C609.32 191.071 612.631 190.723 611.965 192.768C611.715 193.533 610.697 194.32 609.702 194.517C608.439 194.768 608.09 194.347 608.548 193.127ZM1177.06 180.431C1175.07 177.571 1175.01 177.044 1176.48 174.897C1177.93 172.789 1177.92 172.156 1176.43 169.214C1173.98 164.375 1174.33 164.083 1178.57 167.392C1180.67 169.029 1184.81 171.103 1187.77 172.003C1193.9 173.861 1195.37 175.32 1192.18 176.356C1190.98 176.747 1189.99 177.794 1189.99 178.682C1189.99 179.892 1189.24 180.1 1187 179.514C1181.26 178.012 1179.63 178.379 1179.99 181.089C1180.45 184.409 1179.71 184.244 1177.06 180.431H1177.06ZM635.81 181.737C634.548 180.447 635.024 178.292 636.717 177.627C637.896 177.165 638.349 177.749 638.349 179.733C638.349 182.403 637.284 183.244 635.81 181.737ZM1170.15 158.286C1169.23 157.215 1167 153.335 1165.21 149.663C1163.41 145.991 1158.66 139.248 1154.66 134.678C1150.18 129.573 1147.9 126.188 1148.75 125.898C1149.52 125.638 1151.15 126.801 1152.38 128.483C1155.38 132.558 1159.06 136.097 1164.88 140.479C1169.7 144.111 1172.09 147.473 1168.97 146.253C1165.39 144.846 1166.28 148.186 1170.93 153.53C1173.63 156.645 1175.85 159.428 1175.85 159.713C1175.85 161.066 1171.64 160.012 1170.15 158.286ZM373.953 156.339C373.953 155.421 374.427 154.67 375.007 154.67C375.587 154.67 375.779 155.421 375.435 156.339C375.09 157.257 374.616 158.007 374.381 158.007C374.145 158.007 373.953 157.257 373.953 156.339ZM368.268 152.749L364.214 152.315L371.842 144.594C376.037 140.347 380.018 136.873 380.688 136.873C381.395 136.873 381.183 137.69 380.183 138.82C377.918 141.379 379.462 144.254 383.602 145.183C385.409 145.589 387.21 147.005 387.906 148.567C389.023 151.073 388.834 151.329 385.064 152.399C381.109 153.522 376.388 153.62 368.268 152.749ZM103.144 144.769C99.3746 141.17 98.9542 139.654 101.453 138.673C103.692 137.795 107.823 140.657 109.389 144.171C111.032 147.858 111.003 147.996 108.584 147.996C107.45 147.996 105.002 146.544 103.144 144.769ZM582.315 139.118C583.511 138.514 585.867 137.513 587.548 136.893C591.254 135.526 590.639 134.07 585.953 133.112C582.738 132.455 582.625 132.287 584.464 130.912C585.559 130.094 586.136 128.896 585.746 128.251C585.348 127.592 586.467 126.569 588.3 125.916C590.095 125.276 591.563 124.259 591.563 123.655C591.563 121.086 589.295 116.764 588.035 116.932C585.13 117.319 583.785 116.796 584.253 115.46C584.521 114.696 584.3 113.194 583.761 112.123C582.361 109.339 585.579 103.582 588.571 103.52C589.02 103.511 589.265 104.117 589.115 104.867C588.965 105.617 589.992 106.409 591.397 106.627L593.95 107.023L591.51 109.678L589.07 112.333L591.821 113.403C594.773 114.55 597.619 118.289 600.516 124.827C601.905 127.959 602.818 128.778 604.438 128.345C607.763 127.456 608.157 129.76 605.038 131.849C602.925 133.265 602.524 134.063 603.449 135.009C604.375 135.955 602.55 136.59 596.221 137.524C591.565 138.211 586.041 139.098 583.947 139.494C581.034 140.046 580.65 139.957 582.315 139.118ZM563.966 132.973C563.594 131.982 564.018 129.729 564.91 127.967C565.932 125.945 566.13 124.511 565.446 124.079C563.56 122.887 564.267 121.367 567.037 120.656C568.509 120.279 570.282 119.268 570.979 118.41C572.428 116.625 579.131 116.296 580.137 117.961C580.507 118.572 580.046 120.185 579.114 121.546C578.181 122.907 577.418 125.351 577.418 126.978C577.418 129.458 576.673 130.2 572.794 131.576C570.251 132.479 567.376 133.568 566.406 133.997C565.269 134.499 564.402 134.136 563.966 132.973ZM583.947 121.922C583.947 121.652 584.436 121.122 585.035 120.744C585.633 120.366 586.123 120.587 586.123 121.235C586.123 121.882 585.633 122.413 585.035 122.413C584.436 122.413 583.947 122.192 583.947 121.922ZM101.07 116.562C100.004 115.249 100.072 114.638 101.409 113.503C103.621 111.627 104.717 112.899 103.43 115.848C102.543 117.881 102.22 117.979 101.07 116.562ZM99.3683 108.197C99.0009 107.589 99.4293 106.473 100.32 105.717C102.089 104.216 102.459 105.393 100.972 107.793C100.404 108.709 99.7741 108.868 99.3683 108.197ZM29.0411 107.487C29.0411 106.705 32.3403 105.336 37.0207 104.177C38.7949 103.738 39.8439 103.844 39.4914 104.427C39.1545 104.984 37.5222 105.72 35.8641 106.062C34.206 106.404 31.9925 107.023 30.9452 107.437C29.898 107.851 29.0411 107.874 29.0411 107.487V107.487ZM675.615 94.9796C673.608 94.1516 673.963 92.8752 676.25 92.6991C677.347 92.6146 678.244 93.2589 678.244 94.1309C678.244 95.7871 677.867 95.9088 675.615 94.9796ZM436.516 89.2944C429.631 85.4558 426.339 79.5582 428.334 74.6342C429.279 72.3038 429.307 70.8384 428.442 69.1846C426.64 65.7428 428.991 61.7095 435.002 57.9279C437.858 56.1317 440.709 53.679 441.338 52.4773C443.081 49.148 441.528 43.4426 438.495 42.0298C436.96 41.3148 436.125 40.1841 436.464 39.2806C437.236 37.2227 433.614 30.1946 430.006 26.7511C427.35 24.2167 426.208 23.9643 417.115 23.9035C404.733 23.8206 402.427 23.1169 402.632 19.4848C402.717 17.976 403.044 16.7413 403.359 16.7408C403.674 16.7404 408.08 16.2183 413.151 15.5806C419.626 14.7664 425.431 13.0873 432.648 9.94097C443.822 5.06967 444.673 4.97448 471.333 5.61512C479.752 5.81742 487.497 5.18046 497.447 3.46751C506.712 1.87231 513.53 1.27097 517.211 1.72421C520.339 2.10932 524.869 1.85532 527.426 1.15142C533.359 -0.48205 548.776 1.48286 554.84 4.6454C558.425 6.51507 560.321 6.76195 566.37 6.14629C572.904 5.48127 573.398 5.56875 571.434 7.04335C570.237 7.942 566.565 9.03975 563.274 9.4828C556.132 10.4442 549.569 15.6483 551.308 18.971C552.059 20.4044 551.521 21.6278 549.095 24.0038C547.332 25.7302 545.632 27.9738 545.317 28.9895C544.559 31.4296 534.94 35.9709 530.17 36.1402C524.873 36.3283 524.319 37.4796 528.416 39.7864C530.351 40.8761 533.176 42.7329 534.694 43.9126L537.453 46.0574L534.958 47.0008C533.046 47.724 531.495 47.2577 528.313 45.0035C523.995 41.9445 519.35 41.9291 521.828 44.9821C522.795 46.1726 522.562 46.6351 520.753 47.1187C516.71 48.1997 519.57 50.3372 524.029 49.567C526.867 49.0768 528.463 49.3352 529.351 50.4284C530.407 51.7292 529.03 52.3315 521.105 54.0344C515.872 55.1587 508.898 56.1198 505.607 56.1701C499.493 56.2635 495.086 58.058 488.605 63.0944C486.491 64.7368 481.999 66.3644 476.743 67.3925C465.757 69.5413 462.045 72.0264 455.426 81.6623C450.109 89.4019 446.903 92.2866 443.588 92.3139C442.691 92.3214 439.508 90.9625 436.516 89.2944ZM359.368 81.8548C357.032 80.3871 354.168 77.6497 353.005 75.7717C350.734 72.1053 348.641 71.6395 342.511 73.4369C340.436 74.0453 338.107 74.1039 337.176 73.5712C333.954 71.7279 339.773 69.9149 346.255 70.7428C351.184 71.3724 352.28 71.193 352.855 69.6616C354.01 66.5847 359.295 64.3795 362.235 65.7486C364.044 66.5914 365.689 66.5679 368 65.6662C371.109 64.4531 371.152 64.3435 369.121 62.8191C367.959 61.9471 366.633 61.2337 366.175 61.2337C365.716 61.2337 364.059 58.9991 362.494 56.268C360.928 53.5368 357.994 50.2577 355.973 48.9809C352.539 46.811 352.085 46.7729 349.013 48.3968C346.327 49.8165 344.776 49.9159 340.527 48.9405C337.667 48.284 333.674 48.0629 331.654 48.4492C328.149 49.1193 321.727 47.3657 321.727 45.7386C321.727 42.7495 330.941 36.0412 336.415 35.0455L340.767 34.2538L337.657 37.6423C333.365 42.3166 334.979 44.4677 339.639 40.2847C341.616 38.5103 345.032 36.7135 347.231 36.2918C350.591 35.6474 352.03 36.0676 356.249 38.9245C361.863 42.7255 362.295 42.8275 365.461 41.0955C367.367 40.0525 368.074 40.339 370.144 42.9931C371.576 44.8289 374.774 46.8279 377.892 47.8366C382.862 49.4441 383.201 49.7938 383.201 53.2979C383.201 55.9256 383.943 57.5837 385.688 58.8597C392.99 64.1983 392.831 63.9778 391.251 66.5642C389.084 70.1105 387.374 70.3675 382.579 67.8669C379.244 66.1272 377.786 65.8887 376.107 66.8074C374.053 67.9316 374.031 68.1717 375.685 71.4416C377.042 74.1252 377.166 75.4802 376.244 77.5499C375.107 80.1004 374.926 80.1398 371.84 78.5081C365.772 75.3005 361.686 77.4112 367.346 80.8293C369.12 81.9002 370.323 83.1851 370.021 83.6847C368.968 85.4278 363.584 84.5032 359.368 81.8548V81.8548ZM582.859 83.2952C582.859 82.7854 583.593 82.3682 584.491 82.3682C585.388 82.3682 586.123 82.7854 586.123 83.2952C586.123 83.805 585.388 84.2221 584.491 84.2221C583.593 84.2221 582.859 83.805 582.859 83.2952ZM318.344 77.313C316.198 76.1601 314.533 76.0614 311.529 76.9094C306.421 78.3511 304.635 77.296 307.227 74.3684C310.545 70.6203 312.795 69.8832 316.797 71.2334C321.301 72.7531 323.3 75.0117 322.085 77.2083C321.31 78.6087 320.782 78.6235 318.344 77.313ZM534.44 76.8065C532.645 75.5997 530.36 74.8763 529.362 75.199C527.988 75.6433 527.683 75.2576 528.105 73.6088C528.753 71.0781 538.313 67.4256 541.544 68.4742C542.671 68.8397 545.551 68.5391 547.944 67.8062C551.7 66.6555 552.696 66.7426 555.236 68.4437L558.177 70.414L555.557 72.5014C553.346 74.2632 549.244 75.7918 539.337 78.5468C538.439 78.7965 536.236 78.0133 534.44 76.8065ZM239.035 56.0419C237.539 55.8002 233.894 54.4918 230.936 53.1344L225.557 50.6665L233.112 50.1103C237.267 49.8044 240.667 49.0536 240.667 48.4418C240.667 47.83 237.729 47.0612 234.139 46.7333C229.398 46.3003 228.504 45.9957 230.874 45.6209C234.843 44.9934 235.129 43.2361 231.418 42.2781C228.746 41.5882 228.766 41.546 232.525 39.8904C239.039 37.021 245.977 36.4714 252.124 38.3377C257.172 39.87 257.96 39.8635 260.34 38.2695C262.023 37.1423 263.021 36.9536 263.108 37.7466C263.183 38.4287 263.305 39.5708 263.38 40.2846C263.632 42.6944 265.803 42.3826 268.393 39.5644C270.79 36.9555 274.946 35.7057 274.936 37.5964C274.934 38.0553 273.966 40.0506 272.785 42.0305L270.638 45.6303L274.15 47.503L277.661 49.3756L271.896 52.0657C266.693 54.4931 265.626 54.632 260.963 53.4884C256.442 52.3795 255.145 52.5064 250.589 54.5027C245.444 56.7575 244.359 56.9021 239.035 56.0419ZM282.672 55.2582C281.69 54.0476 282.095 53.4519 284.635 52.3764C286.403 51.6278 288.939 51.3783 290.298 51.8192C292.654 52.5838 292.6 52.7041 289.018 54.6544C284.448 57.1427 284.22 57.1644 282.672 55.2582ZM582.859 50.1103C584.968 48.7166 586.123 48.7166 586.123 50.1103C586.123 50.7221 585.021 51.215 583.675 51.2056C581.695 51.1919 581.539 50.9822 582.859 50.1103ZM782.516 47.0243C776.953 44.778 777.067 44.9008 778.686 42.907C779.443 41.9745 779.635 41.1956 779.113 41.1762C778.591 41.1567 779.143 40.3843 780.34 39.4598C781.537 38.5352 782.524 37.4249 782.534 36.9924C782.572 35.3472 787.002 31.0084 790.132 29.5504C791.928 28.7142 796.579 27.7717 800.469 27.456C804.358 27.1403 809.569 26.5619 812.047 26.1707C814.684 25.7543 816.834 25.9245 817.231 26.5813C818.002 27.8574 816.53 28.3998 808.085 29.9509C799.705 31.49 794.668 33.8884 791.35 37.9192C787.856 42.1654 787.739 44.8464 790.948 47.1354L793.396 48.8813L790.132 48.8315C788.337 48.8042 784.91 47.9909 782.516 47.0243V47.0243ZM212.655 43.7991C210.9 42.0052 211.3 41.6147 219.719 36.903C229.583 31.3825 234.539 30.6497 243.387 33.4036L248.283 34.9276L241.755 36.251C236.416 37.3333 225.101 41.2013 216.166 44.9988C215.255 45.3862 213.681 44.8486 212.655 43.7991ZM291.261 42.3594C291.261 41.7672 289.915 40.4925 288.269 39.5269L285.277 37.7711L289.283 38.4152C292.13 38.8729 293.547 38.6003 294.179 37.4734C294.931 36.1333 301.857 33.4517 304.618 33.4314C305.082 33.4276 304.703 34.9251 303.776 36.7584C301.592 41.0762 291.261 45.6998 291.261 42.3594ZM308.201 39.1116C306.643 36.533 317.289 32.5415 321.812 34.0089C325.108 35.0784 322.905 36.9162 317.156 37.8933C314.583 38.3304 311.671 39.0398 310.684 39.4695C309.697 39.8993 308.58 39.7382 308.201 39.1116ZM342.944 30.9206C335.762 30.3366 329.753 29.7318 329.589 29.5765C328.616 28.6537 331.043 25.6496 333.654 24.5437C336.222 23.4564 337.405 23.6007 340.921 25.4297C344.347 27.2124 346.555 27.5087 352.92 27.0398C357.211 26.7237 362.107 26.8236 363.801 27.2619L366.881 28.0589L363.073 30.1392C360.978 31.2834 358.53 32.1662 357.632 32.101C356.735 32.0357 350.125 31.5046 342.944 30.9206ZM656.06 26.3746C650.715 23.5772 650.2 22.3086 654.398 22.2847C656.044 22.2753 658.125 21.7276 659.022 21.0675C660.433 20.0299 660.414 19.945 658.883 20.4414C657.908 20.7572 656.542 20.4329 655.845 19.7213C654.883 18.7373 654.381 18.7547 653.753 19.7941C653.171 20.7563 651.977 20.8702 649.718 20.1787C643.981 18.4221 642.701 17.6423 642.701 15.9007C642.701 14.4254 644.14 14.2903 653.038 14.9298C659.815 15.4168 663.374 15.2818 663.374 14.5378C663.374 12.3481 666.393 13.4294 667.194 15.9058L668.003 18.4085L668.484 15.9058C668.749 14.5292 669.666 13.403 670.522 13.403C671.378 13.403 672.079 12.8023 672.079 12.0682C672.079 11.03 672.369 11.03 673.384 12.0682C674.144 12.8446 677.785 13.403 682.089 13.403C689.868 13.403 691.695 14.8248 686.507 16.8414C683.811 17.8893 679.122 17.5929 673.983 16.0496C672.936 15.7351 672.082 15.8869 672.086 16.387C672.093 17.4135 678.207 21.1894 679.861 21.1894C680.454 21.1894 681.625 21.8916 682.465 22.7499C683.775 24.0889 683.764 24.3996 682.387 24.9396C681.505 25.2858 680.783 25.0284 680.783 24.3677C680.783 23.5911 679.399 23.4319 676.868 23.9174C674.127 24.4432 673.176 24.2989 673.697 23.4363C674.107 22.7587 673.851 21.4754 673.127 20.5845C671.732 18.8658 667.727 18.3396 667.727 19.875C667.727 20.3756 666.135 22.5838 664.19 24.7821L660.654 28.7789L656.06 26.3746L656.06 26.3746ZM367.425 23.9275C365.539 22.7955 362.87 22.4676 358.72 22.8579C354.842 23.2227 351.859 22.9082 350.244 21.964C348.018 20.6624 348.562 20.514 355.358 20.5703C363.855 20.6406 367.587 18.781 362.985 16.7695C360.799 15.8139 361.118 15.7272 364.865 16.2579C369.757 16.9508 371.659 15.6108 368.993 13.3492C366.151 10.9376 369.276 10.1889 379.389 10.8588C385.648 11.2733 389.58 11.0408 391.188 10.1613C394.267 8.47635 393.059 6.33153 389.539 7.23471C387.106 7.85892 370.223 6.83463 370.935 6.10606C371.445 5.58539 395.364 3.32063 411.07 2.306C419.217 1.77972 428.275 1.04557 431.199 0.674567L436.516 0L427.739 4.3101C419.51 8.35112 406.128 12.2907 400.63 12.2907C399.292 12.2907 395.444 13.7923 392.08 15.6277C388.715 17.4631 385.288 18.9647 384.463 18.9647C383.639 18.9647 380.08 20.46 376.554 22.2876C373.029 24.1153 370.145 25.5992 370.145 25.5853C370.145 25.5713 368.921 24.8254 367.425 23.9275ZM346.208 13.765C340.935 12.5721 340.741 12.1234 344.616 10.0702C350.265 7.07734 355.61 6.31025 358.04 8.14375C359.964 9.59537 359.852 9.81975 356.074 12.099C352.135 14.4745 350.537 14.7444 346.208 13.765Z" fill="#B9B9B9" fill-opacity="0.1"/>
</svg>
